<svg width="36" height="40" viewBox="0 0 36 40" fill="none" xmlns="http://www.w3.org/2000/svg">
<path d="M7.86109 40H32.7889C34.5098 40 35.9049 38.5929 35.9049 36.8571V11.1948C35.9049 10.4382 35.6071 9.71252 35.077 9.17707L26.8204 0.838248C26.289 0.301577 25.5678 0 24.8156 0L7.86109 0C6.14019 0 4.74512 1.4071 4.74512 3.14286L4.74512 36.8571C4.74512 38.5929 6.14019 40 7.86109 40Z" fill="white"/>
<path d="M32.7884 39.5H7.86061C6.41988 39.5 5.24463 38.3208 5.24463 36.8571V3.14286C5.24463 1.67919 6.41988 0.5 7.86061 0.5H24.8151C25.4332 0.5 26.0267 0.747776 26.4646 1.19004L34.7212 9.52887C35.1582 9.97027 35.4044 10.5693 35.4044 11.1948V36.8571C35.4044 38.3208 34.2291 39.5 32.7884 39.5Z" fill="white" stroke="#ECF0F5"/>
<path d="M5.28869 32.8464L5.344 12.5713H23.5081V30.1346L5.28869 32.8464Z" fill="white" stroke="#ECF0F5"/>
<path d="M1.5934 11.1279H23.901C24.4839 11.1279 24.9944 11.6288 24.9944 12.2946V28.9613C24.9944 29.627 24.4839 30.1279 23.901 30.1279H1.5934C1.01048 30.1279 0.5 29.627 0.5 28.9613V12.2946C0.5 11.6288 1.01048 11.1279 1.5934 11.1279Z" fill="#1E81CE" stroke="#ECF0F5"/>
<path d="M3.79492 25V17.1797H6.10449C6.79557 17.1797 7.40788 17.3337 7.94141 17.6416C8.47852 17.9495 8.89388 18.3864 9.1875 18.9521C9.48112 19.5179 9.62793 20.166 9.62793 20.8965V21.2886C9.62793 22.0298 9.47933 22.6815 9.18213 23.2437C8.88851 23.8058 8.46777 24.2391 7.91992 24.5435C7.37565 24.8478 6.75081 25 6.04541 25H3.79492ZM5.15381 18.2754V23.915H6.04004C6.7526 23.915 7.29867 23.693 7.67822 23.249C8.06136 22.8014 8.25651 22.1605 8.26367 21.3262V20.8911C8.26367 20.0425 8.07926 19.3944 7.71045 18.9468C7.34163 18.4992 6.80632 18.2754 6.10449 18.2754H5.15381ZM10.6108 22.0405C10.6108 21.4712 10.7236 20.9591 10.9492 20.5044C11.1748 20.0461 11.4917 19.6951 11.8999 19.4517C12.3081 19.2046 12.7772 19.0811 13.3071 19.0811C14.0913 19.0811 14.7269 19.3335 15.2139 19.8384C15.7044 20.3433 15.9694 21.0129 16.0088 21.8472L16.0142 22.1533C16.0142 22.7262 15.9032 23.2383 15.6812 23.6895C15.4627 24.1406 15.1476 24.4897 14.7358 24.7368C14.3276 24.9839 13.855 25.1074 13.3179 25.1074C12.4979 25.1074 11.8408 24.8353 11.3467 24.291C10.8561 23.7432 10.6108 23.0145 10.6108 22.105V22.0405ZM11.916 22.1533C11.916 22.7513 12.0396 23.2204 12.2866 23.5605C12.5337 23.8971 12.8774 24.0654 13.3179 24.0654C13.7583 24.0654 14.1003 23.8936 14.3438 23.5498C14.5908 23.2061 14.7144 22.703 14.7144 22.0405C14.7144 21.4533 14.5872 20.9878 14.333 20.644C14.0824 20.3003 13.7404 20.1284 13.3071 20.1284C12.881 20.1284 12.5426 20.2985 12.292 20.6387C12.0413 20.9753 11.916 21.4801 11.916 22.1533ZM19.5054 24.0654C19.8312 24.0654 20.1016 23.9705 20.3164 23.7808C20.5312 23.591 20.6458 23.3564 20.6602 23.0771H21.8901C21.8758 23.4388 21.763 23.7772 21.5518 24.0923C21.3405 24.4038 21.054 24.6509 20.6924 24.8335C20.3307 25.0161 19.9404 25.1074 19.5215 25.1074C18.7087 25.1074 18.0641 24.8442 17.5879 24.3179C17.1117 23.7915 16.8735 23.0646 16.8735 22.1372V22.0029C16.8735 21.1185 17.1099 20.4113 17.5825 19.8813C18.0552 19.3478 18.6997 19.0811 19.5161 19.0811C20.2072 19.0811 20.7694 19.2834 21.2026 19.688C21.6395 20.089 21.8687 20.6172 21.8901 21.2725H20.6602C20.6458 20.9395 20.5312 20.6655 20.3164 20.4507C20.1051 20.2358 19.8348 20.1284 19.5054 20.1284C19.0828 20.1284 18.757 20.2824 18.5278 20.5903C18.2987 20.8947 18.1823 21.3584 18.1787 21.9814V22.1909C18.1787 22.8211 18.2915 23.292 18.5171 23.6035C18.7463 23.9115 19.0757 24.0654 19.5054 24.0654Z" fill="white"/>
</svg>
