<svg width="36" height="40" viewBox="0 0 36 40" fill="none" xmlns="http://www.w3.org/2000/svg">
<mask id="mask0" mask-type="alpha" maskUnits="userSpaceOnUse" x="4" y="0" width="32" height="41">
<path d="M32.7889 39.501H7.86109C6.42037 39.501 5.24512 38.3218 5.24512 36.8581V3.14383C5.24512 1.68017 6.42037 0.500977 7.86109 0.500977H24.8156C25.4337 0.500977 26.0272 0.748752 26.4651 1.19102L34.7217 9.52984C35.1587 9.97124 35.4049 10.5703 35.4049 11.1957V36.8581C35.4049 38.3218 34.2296 39.501 32.7889 39.501Z" fill="white" stroke="#14B45C"/>
</mask>
<g mask="url(#mask0)">
<path d="M32.7884 39.5H7.86061C6.41988 39.5 5.24463 38.3208 5.24463 36.8571V3.14286C5.24463 1.67919 6.41988 0.5 7.86061 0.5H24.8151C25.4332 0.5 26.0267 0.747776 26.4646 1.19004L34.7212 9.52887C35.1582 9.97027 35.4044 10.5693 35.4044 11.1948V36.8571C35.4044 38.3208 34.2291 39.5 32.7884 39.5Z" fill="white" stroke="#14B45C"/>
<path d="M5.28869 32.8474L5.344 12.5723H23.5081V30.1355L5.28869 32.8474Z" fill="white" stroke="#14B45C"/>
</g>
<path d="M1.5934 11.1289H23.901C24.4839 11.1289 24.9944 11.6298 24.9944 12.2956V28.9622C24.9944 29.628 24.4839 30.1289 23.901 30.1289H1.5934C1.01048 30.1289 0.5 29.628 0.5 28.9622V12.2956C0.5 11.6298 1.01048 11.1289 1.5934 11.1289Z" fill="#14B45C" stroke="#14B45C"/>
<path d="M8.36572 21.5098H5.15381V23.916H8.9082V25.001H3.79492V17.1807H8.87061V18.2764H5.15381V20.4355H8.36572V21.5098ZM12.7056 20.0059L14.3491 17.1807H15.9175L13.5542 21.0586L15.9712 25.001H14.3867L12.7056 22.1328L11.019 25.001H9.43994L11.8623 21.0586L9.49365 17.1807H11.062L12.7056 20.0059ZM18.3345 23.916H21.8848V25.001H16.9756V17.1807H18.3345V23.916Z" fill="white"/>
</svg>
