<svg width="24" height="24" viewBox="0 0 24 24" fill="none" xmlns="http://www.w3.org/2000/svg">
<g clip-path="url(#clip0)">
<path d="M12 23.999C18.6274 23.999 24 18.6264 24 11.999C24 5.37161 18.6274 -0.000976562 12 -0.000976562C5.37258 -0.000976562 0 5.37161 0 11.999C0 18.6264 5.37258 23.999 12 23.999Z" fill="#E8E9E9"/>
<path d="M19.1712 12.9656V17.9129H16.3029V13.2971C16.3029 12.1382 15.8888 11.3467 14.8502 11.3467C14.0577 11.3467 13.5869 11.8796 13.3789 12.3955C13.3034 12.5799 13.284 12.836 13.284 13.0946V17.9127H10.4154C10.4154 17.9127 10.4539 10.0951 10.4154 9.28588H13.2842V10.5084C13.2784 10.518 13.2703 10.5274 13.2651 10.5366H13.2842V10.5084C13.6654 9.92184 14.3452 9.08331 15.8693 9.08331C17.7564 9.08331 19.1712 10.3163 19.1712 12.9656ZM7.41466 5.12744C6.43345 5.12744 5.7915 5.77153 5.7915 6.61776C5.7915 7.44603 6.41484 8.10872 7.37701 8.10872H7.39563C8.39609 8.10872 9.01814 7.44603 9.01814 6.61776C8.9991 5.77153 8.39609 5.12744 7.41466 5.12744ZM5.96199 17.9129H8.82947V9.28588H5.96199V17.9129Z" fill="#1C1F28"/>
</g>
<defs>
<clipPath id="clip0">
<rect width="24" height="24" fill="white"/>
</clipPath>
</defs>
</svg>
