<svg width="36" height="40" viewBox="0 0 36 40" fill="none" xmlns="http://www.w3.org/2000/svg">
<mask id="mask0" mask-type="alpha" maskUnits="userSpaceOnUse" x="4" y="-1" width="32" height="41">
<path d="M32.7889 39.499H7.86109C6.42037 39.499 5.24512 38.3198 5.24512 36.8562V3.14188C5.24512 1.67821 6.42037 0.499023 7.86109 0.499023H24.8156C25.4337 0.499023 26.0272 0.746799 26.4651 1.18907L34.7217 9.52789C35.1587 9.96929 35.4049 10.5684 35.4049 11.1938V36.8562C35.4049 38.3198 34.2296 39.499 32.7889 39.499Z" fill="white" stroke="#E42727"/>
</mask>
<g mask="url(#mask0)">
<path d="M32.7884 39.5H7.86061C6.41988 39.5 5.24463 38.3208 5.24463 36.8571V3.14286C5.24463 1.67919 6.41988 0.5 7.86061 0.5H24.8151C25.4332 0.5 26.0267 0.747776 26.4646 1.19004L34.7212 9.52887C35.1582 9.97027 35.4044 10.5693 35.4044 11.1948V36.8571C35.4044 38.3208 34.2291 39.5 32.7884 39.5Z" fill="white" stroke="#E42727"/>
<path d="M5.28869 32.8464L5.344 12.5713H23.5081V30.1346L5.28869 32.8464Z" fill="white" stroke="#E42727"/>
</g>
<path d="M1.5934 11.1289H23.901C24.4839 11.1289 24.9944 11.6298 24.9944 12.2956V28.9622C24.9944 29.628 24.4839 30.1289 23.901 30.1289H1.5934C1.01048 30.1289 0.5 29.628 0.5 28.9622V12.2956C0.5 11.6298 1.01048 11.1289 1.5934 11.1289Z" fill="#E42727" stroke="#E42727"/>
<path d="M5.15381 22.0933V24.999H3.79492V17.1787H6.78662C7.66032 17.1787 8.35319 17.4061 8.86523 17.8608C9.38086 18.3156 9.63867 18.9172 9.63867 19.6655C9.63867 20.4318 9.38623 21.028 8.88135 21.4541C8.38005 21.8802 7.67643 22.0933 6.77051 22.0933H5.15381ZM5.15381 21.0029H6.78662C7.27002 21.0029 7.63883 20.8901 7.89307 20.6646C8.1473 20.4354 8.27441 20.106 8.27441 19.6763C8.27441 19.2537 8.14551 18.9172 7.8877 18.6665C7.62988 18.4123 7.27539 18.2816 6.82422 18.2744H5.15381V21.0029ZM10.8311 24.999V17.1787H13.1406C13.8317 17.1787 14.444 17.3327 14.9775 17.6406C15.5146 17.9486 15.93 18.3854 16.2236 18.9512C16.5173 19.5169 16.6641 20.165 16.6641 20.8955V21.2876C16.6641 22.0288 16.5155 22.6805 16.2183 23.2427C15.9246 23.8049 15.5039 24.2381 14.9561 24.5425C14.4118 24.8468 13.7869 24.999 13.0815 24.999H10.8311ZM12.1899 18.2744V23.9141H13.0762C13.7887 23.9141 14.3348 23.6921 14.7144 23.248C15.0975 22.8005 15.2926 22.1595 15.2998 21.3252V20.8901C15.2998 20.0415 15.1154 19.3934 14.7466 18.9458C14.3778 18.4982 13.8424 18.2744 13.1406 18.2744H12.1899ZM22.5239 21.6851H19.3765V24.999H18.0176V17.1787H22.9858V18.2744H19.3765V20.6001H22.5239V21.6851Z" fill="white"/>
</svg>
