<svg width="16" height="17" viewBox="0 0 16 17" fill="none" xmlns="http://www.w3.org/2000/svg">
<path d="M12.6518 10.4363C12.3237 10.0857 11.928 9.89832 11.5087 9.89832C11.0927 9.89832 10.6937 10.0823 10.3521 10.4328L9.28346 11.526C9.19554 11.4774 9.10761 11.4323 9.02307 11.3872C8.90132 11.3247 8.78634 11.2657 8.68827 11.2033C7.68725 10.5508 6.77754 9.7005 5.90503 8.60032C5.48231 8.05197 5.19823 7.59038 4.99194 7.12185C5.26925 6.86156 5.52627 6.59085 5.77653 6.33056C5.87122 6.23338 5.96591 6.13274 6.0606 6.03556C6.77078 5.30674 6.77078 4.36274 6.0606 3.63392L5.13736 2.68645C5.03253 2.57886 4.92431 2.4678 4.82285 2.35674C4.61994 2.14156 4.40689 1.91945 4.18707 1.71121C3.85904 1.37803 3.46675 1.20103 3.05417 1.20103C2.64158 1.20103 2.24253 1.37803 1.90435 1.71121C1.90097 1.71468 1.90097 1.71468 1.89759 1.71815L0.747769 2.90856C0.314897 3.3528 0.0680247 3.89421 0.0139157 4.52239C-0.0672479 5.5358 0.223588 6.4798 0.446788 7.09756C0.994641 8.61421 1.81304 10.0198 3.03387 11.526C4.51511 13.3411 6.29732 14.7745 8.33318 15.7844C9.11099 16.1627 10.1492 16.6104 11.3092 16.6868C11.3802 16.6903 11.4546 16.6937 11.5222 16.6937C12.3034 16.6937 12.9595 16.4057 13.4735 15.833C13.4769 15.8261 13.4837 15.8226 13.4871 15.8157C13.6629 15.597 13.8658 15.3992 14.0789 15.1875C14.2243 15.0452 14.3731 14.896 14.5185 14.7398C14.8533 14.3823 15.0292 13.9659 15.0292 13.539C15.0292 13.1086 14.8499 12.6956 14.5084 12.3486L12.6518 10.4363ZM13.8624 14.0908C13.8591 14.0908 13.8591 14.0943 13.8624 14.0908C13.7305 14.2366 13.5953 14.3684 13.4499 14.5142C13.23 14.7294 13.0068 14.955 12.7972 15.2083C12.4556 15.5831 12.0532 15.7601 11.5256 15.7601C11.4749 15.7601 11.4208 15.7601 11.37 15.7567C10.3656 15.6907 9.43226 15.2881 8.73223 14.9446C6.81812 13.9936 5.13736 12.6436 3.74067 10.9326C2.58748 9.50615 1.81642 8.18732 1.30577 6.77133C0.99126 5.90715 0.876278 5.23386 0.927005 4.59874C0.960823 4.19268 1.113 3.85603 1.3937 3.56797L2.54689 2.3845C2.7126 2.22486 2.88846 2.13809 3.06093 2.13809C3.27398 2.13809 3.44646 2.26998 3.55467 2.38103C3.55806 2.3845 3.56144 2.38798 3.56482 2.39145C3.77111 2.58927 3.96725 2.79403 4.17355 3.01268C4.27838 3.12374 4.3866 3.2348 4.49482 3.34933L5.41805 4.2968C5.77652 4.66468 5.77652 5.0048 5.41805 5.37268C5.31998 5.47333 5.22529 5.57397 5.12722 5.67115C4.84314 5.96962 4.5726 6.24727 4.27838 6.51797C4.27162 6.52491 4.26485 6.52838 4.26147 6.53533C3.97064 6.8338 4.02475 7.12533 4.08562 7.32315C4.089 7.33356 4.09238 7.34397 4.09576 7.35438C4.33587 7.95132 4.67405 8.51356 5.18809 9.18338L5.19147 9.18685C6.12485 10.3669 7.10896 11.2866 8.19452 11.9911C8.33318 12.0813 8.47521 12.1542 8.61048 12.2236C8.73223 12.2861 8.84721 12.3451 8.94528 12.4076C8.95881 12.4145 8.97234 12.4249 8.98587 12.4319C9.10085 12.4909 9.20906 12.5186 9.32066 12.5186C9.60136 12.5186 9.77721 12.3381 9.8347 12.2791L10.9913 11.0922C11.1063 10.9742 11.2889 10.8319 11.5019 10.8319C11.7116 10.8319 11.8841 10.9673 11.9889 11.0853C11.9923 11.0887 11.9923 11.0887 11.9957 11.0922L13.8591 13.0045C14.2074 13.3585 14.2074 13.7229 13.8624 14.0908Z" fill="#F18518"/>
<path d="M8.64777 4.16158C9.53379 4.31429 10.3387 4.74464 10.9812 5.40405C11.6237 6.06346 12.0397 6.88946 12.1919 7.79875C12.2291 8.02781 12.4218 8.18746 12.6417 8.18746C12.6687 8.18746 12.6924 8.18399 12.7194 8.18052C12.9697 8.13887 13.1354 7.89593 13.0948 7.63911C12.9122 6.53893 12.4049 5.53593 11.6305 4.74117C10.8561 3.9464 9.87874 3.42582 8.80671 3.2384C8.55646 3.19676 8.32311 3.36682 8.27915 3.62017C8.23519 3.87352 8.39751 4.11993 8.64777 4.16158Z" fill="#F18518"/>
<path d="M15.9931 7.50373C15.6921 5.69208 14.8601 4.04355 13.5818 2.73167C12.3035 1.41979 10.6971 0.566025 8.93178 0.257143C8.68491 0.212025 8.45156 0.385555 8.4076 0.638907C8.36702 0.895731 8.53273 1.1352 8.78298 1.18032C10.3589 1.45449 11.7962 2.22149 12.9393 3.39108C14.0823 4.56414 14.8263 6.03914 15.0935 7.65643C15.1307 7.88549 15.3235 8.04514 15.5433 8.04514C15.5703 8.04514 15.594 8.04167 15.6211 8.0382C15.8679 8.00002 16.037 7.75708 15.9931 7.50373Z" fill="#F18518"/>
</svg>



