<svg width="24" height="24" viewBox="0 0 24 24" fill="none" xmlns="http://www.w3.org/2000/svg">
<path d="M12 24C18.6274 24 24 18.6274 24 12C24 5.37258 18.6274 0 12 0C5.37258 0 0 5.37258 0 12C0 18.6274 5.37258 24 12 24Z" fill="#E8E9E9"/>
<path fill-rule="evenodd" clip-rule="evenodd" d="M11.5452 17.263H12.487C12.487 17.263 12.7715 17.2317 12.9168 17.0752C13.0505 16.9314 13.0462 16.6615 13.0462 16.6615C13.0462 16.6615 13.0278 15.3977 13.6144 15.2116C14.1926 15.0282 14.935 16.433 15.722 16.9731C16.3171 17.3819 16.7693 17.2923 16.7693 17.2923L18.8736 17.263C18.8736 17.263 19.9744 17.1952 19.4524 16.3297C19.4096 16.2589 19.1485 15.6894 17.8879 14.5193C16.5685 13.2947 16.7452 13.4928 18.3345 11.3744C19.3025 10.0843 19.6894 9.2967 19.5686 8.95936C19.4533 8.63807 18.7414 8.72299 18.7414 8.72299L16.3721 8.73775C16.3721 8.73775 16.1965 8.71379 16.0662 8.79166C15.9389 8.86802 15.857 9.046 15.857 9.046C15.857 9.046 15.482 10.0443 14.9819 10.8933C13.9269 12.6848 13.505 12.7794 13.3326 12.6682C12.9315 12.4089 13.0317 11.6266 13.0317 11.0709C13.0317 9.33478 13.295 8.6109 12.5189 8.42352C12.2614 8.36127 12.0718 8.3202 11.4132 8.31357C10.5678 8.3048 9.85229 8.31613 9.44715 8.51464C9.17762 8.64663 8.9697 8.94075 9.09633 8.95765C9.25291 8.97862 9.60758 9.05327 9.79561 9.30932C10.0384 9.6396 10.0298 10.3814 10.0298 10.3814C10.0298 10.3814 10.1693 12.4252 9.70405 12.6791C9.38468 12.8532 8.94659 12.4977 8.00602 10.8724C7.52408 10.0398 7.16022 9.11958 7.16022 9.11958C7.16022 9.11958 7.09006 8.9476 6.96492 8.85562C6.81304 8.74417 6.60084 8.70866 6.60084 8.70866L4.34942 8.72342C4.34942 8.72342 4.01144 8.73283 3.88738 8.87979C3.777 9.01049 3.87861 9.28087 3.87861 9.28087C3.87861 9.28087 5.64124 13.4047 7.63703 15.4828C9.46704 17.3881 11.5452 17.263 11.5452 17.263Z" fill="#1C1F28"/>
</svg>
