<svg width="24" height="24" viewBox="0 0 24 24" fill="none" xmlns="http://www.w3.org/2000/svg">
<g opacity="0.9">
<path fill-rule="evenodd" clip-rule="evenodd" d="M12 24C18.6274 24 24 18.6274 24 12C24 5.37258 18.6274 0 12 0C5.37258 0 0 5.37258 0 12C0 18.6274 5.37258 24 12 24ZM18.2796 9.68437C18.2796 8.6784 17.4646 7.86304 16.4592 7.86304H7.91874C6.91355 7.86304 6.09875 8.6786 6.09875 9.68437V14.5683C6.09875 15.5743 6.9137 16.3897 7.91874 16.3897H16.4591C17.4647 16.3897 18.2794 15.5741 18.2794 14.5683V9.68437H18.2796ZM10.9705 9.59937V14.1862L14.4495 11.8929L10.9705 9.59937Z" fill="white"/>
</g>
</svg>
