<svg width="16" height="17" viewBox="0 0 16 17" fill="none" xmlns="http://www.w3.org/2000/svg">
<path d="M15.6443 14.5402L12.3463 11.1506C13.1411 9.97138 13.5387 8.65677 13.5387 7.20747C13.5387 6.26535 13.3607 5.36431 13.0048 4.50456C12.6491 3.64468 12.1683 2.90352 11.5625 2.28091C10.9568 1.65831 10.2357 1.16412 9.39928 0.79853C8.56254 0.432832 7.68593 0.25 6.76928 0.25C5.8527 0.25 4.97602 0.432832 4.13952 0.79853C3.30289 1.16412 2.58177 1.65831 1.976 2.28091C1.37016 2.90352 0.889407 3.64481 0.533665 4.50456C0.177888 5.36441 0 6.26535 0 7.20747C0 8.14953 0.177888 9.05026 0.533665 9.91025C0.889374 10.77 1.37016 11.511 1.976 12.1337C2.58177 12.7565 3.30302 13.2504 4.13952 13.6162C4.97612 13.9819 5.8527 14.1647 6.76928 14.1647C8.17969 14.1647 9.45855 13.756 10.606 12.9392L13.904 16.3189C14.1348 16.5692 14.4229 16.6944 14.7693 16.6944C15.1026 16.6944 15.3913 16.5692 15.6347 16.3189C15.8782 16.0687 16 15.7722 16 15.4296C16.0001 15.0806 15.8815 14.784 15.6443 14.5402ZM9.81258 10.335C8.96965 11.2015 7.95529 11.6347 6.76928 11.6347C5.58347 11.6347 4.56912 11.2014 3.72612 10.335C2.88312 9.46864 2.46164 8.42624 2.46164 7.20727C2.46164 5.9885 2.88322 4.94579 3.72612 4.07953C4.56895 3.21307 5.58347 2.77991 6.76928 2.77991C7.95516 2.77991 8.96951 3.21325 9.81258 4.07953C10.6556 4.94579 11.0771 5.9885 11.0771 7.20727C11.0771 8.42624 10.6555 9.46864 9.81258 10.335Z" fill="#253757"/>
</svg>
