<svg width="40" height="40" viewBox="0 0 40 40" fill="none" xmlns="http://www.w3.org/2000/svg">
<g clip-path="url(#clip0)">
<path d="M33.6168 5.18284C33.6188 4.22102 32.8293 3.43962 31.8535 3.43758L1.84643 3.37598C0.870534 3.37395 0.077901 4.15209 0.0759479 5.114L0.0646362 10.6361L33.6054 10.7049L33.6168 5.18284Z" fill="#1A75BC"/>
<path d="M0.0645783 10.6362L0.0211218 31.7877C0.0191687 32.7496 0.808628 33.5309 1.78445 33.5329L31.7915 33.5945C32.7673 33.5965 33.5599 32.8184 33.5619 31.8565L33.6053 10.7051L0.0645783 10.6362Z" fill="#E5EBF1"/>
<path d="M5.82996 7.38538C6.70831 7.38538 7.42035 6.67334 7.42035 5.79498C7.42035 4.91663 6.70831 4.20459 5.82996 4.20459C4.95161 4.20459 4.23956 4.91663 4.23956 5.79498C4.23956 6.67334 4.95161 7.38538 5.82996 7.38538Z" fill="#5BA3DB"/>
<path d="M27.8613 7.4303C28.7397 7.4303 29.4517 6.71826 29.4517 5.83991C29.4517 4.96156 28.7397 4.24951 27.8613 4.24951C26.983 4.24951 26.2709 4.96156 26.2709 5.83991C26.2709 6.71826 26.983 7.4303 27.8613 7.4303Z" fill="#5BA3DB"/>
<path d="M5.84172 0L5.82788 6.76815C6.44303 6.76937 6.94277 6.2789 6.94408 5.67246L6.95343 1.10033C6.95466 0.493972 6.45686 0.00130207 5.84172 0Z" fill="#E1E6E9"/>
<path d="M4.72555 1.09577L4.71619 5.6679C4.71497 6.27434 5.2126 6.76693 5.82783 6.76815L5.84174 2.27322e-06C5.22652 -0.00121842 4.72685 0.489336 4.72555 1.09577Z" fill="#EBF0F3"/>
<path d="M26.7558 1.1411L26.7464 5.71323C26.7451 6.31967 27.2429 6.81226 27.858 6.81356L27.872 0.0454124C27.2567 0.0441917 26.757 0.534746 26.7558 1.1411Z" fill="#EBF0F3"/>
<path d="M27.8721 0.0454102L27.8582 6.81356C28.4733 6.81478 28.9731 6.32422 28.9744 5.71778L28.9838 1.14566C28.9849 0.539301 28.4871 0.0466308 27.8721 0.0454102Z" fill="#E1E6E9"/>
<path d="M15.2672 16.0514L18.3796 16.0576L18.3859 12.9452L15.2734 12.939L15.2672 16.0514Z" fill="white"/>
<path d="M20.85 16.0602L23.9625 16.0664L23.9687 12.954L20.8563 12.9478L20.85 16.0602Z" fill="white"/>
<path d="M26.4374 16.0729L29.5498 16.0791L29.556 12.9667L26.4436 12.9604L26.4374 16.0729Z" fill="#F18518"/>
<path d="M4.0888 21.1051L7.20123 21.1113L7.20746 17.9989L4.09503 17.9927L4.0888 21.1051Z" fill="white"/>
<path d="M9.67077 21.1183L12.7832 21.1245L12.7894 18.0121L9.677 18.0059L9.67077 21.1183Z" fill="#1A75BC"/>
<path d="M15.2565 21.1305L18.369 21.1367L18.3752 18.0243L15.2628 18.0181L15.2565 21.1305Z" fill="white"/>
<path d="M20.8414 21.1437L23.9538 21.1499L23.96 18.0375L20.8476 18.0313L20.8414 21.1437Z" fill="white"/>
<path d="M26.4246 21.152L29.537 21.1582L29.5433 18.0458L26.4308 18.0395L26.4246 21.152Z" fill="#F18518"/>
<path d="M4.07812 26.1881L7.19055 26.1943L7.19678 23.0819L4.08435 23.0757L4.07812 26.1881Z" fill="white"/>
<path d="M9.66217 26.2013L12.7746 26.2075L12.7808 23.0951L9.66839 23.0889L9.66217 26.2013Z" fill="white"/>
<path d="M15.2458 26.2096L18.3582 26.2158L18.3644 23.1034L15.252 23.0972L15.2458 26.2096Z" fill="white"/>
<path d="M20.8286 26.2223L23.941 26.2285L23.9473 23.1161L20.8348 23.1099L20.8286 26.2223Z" fill="white"/>
<path d="M26.4162 26.235L29.5287 26.2412L29.5349 23.1288L26.4225 23.1226L26.4162 26.235Z" fill="#E56353"/>
<path d="M4.06744 31.2677L7.17987 31.2739L7.1861 28.1615L4.07367 28.1553L4.06744 31.2677Z" fill="white"/>
<path d="M9.64941 31.2809L12.7618 31.2871L12.7681 28.1747L9.65564 28.1684L9.64941 31.2809Z" fill="white"/>
<path d="M29.2527 40.0001C35.1766 40.0001 39.9788 35.1978 39.9788 29.274C39.9788 23.3501 35.1766 18.5479 29.2527 18.5479C23.3289 18.5479 18.5266 23.3501 18.5266 29.274C18.5266 35.1978 23.3289 40.0001 29.2527 40.0001Z" fill="#253757"/>
<path d="M29.2526 38.0281C34.0874 38.0281 38.0067 34.1088 38.0067 29.2741C38.0067 24.4393 34.0874 20.52 29.2526 20.52C24.4179 20.52 20.4986 24.4393 20.4986 29.2741C20.4986 34.1088 24.4179 38.0281 29.2526 38.0281Z" fill="white"/>
<path d="M20.9242 29.4706C20.9339 24.7535 24.7657 20.9373 29.4829 20.947C34.1642 20.9566 37.9561 24.7308 38.0041 29.3984C38.0046 29.3626 38.0071 29.3272 38.0072 29.2912C38.0171 24.4557 34.1051 20.5276 29.2694 20.5176C24.4338 20.5077 20.5058 24.4196 20.4958 29.2553C20.4859 34.0909 24.3979 38.019 29.2334 38.0289C29.2694 38.029 29.3048 38.0268 29.3407 38.0265C24.6731 37.9592 20.9146 34.1519 20.9242 29.4706Z" fill="#E1E6E9"/>
<path d="M33.7005 33.8681C33.6506 33.8679 33.6007 33.8488 33.5628 33.8107L27.8948 28.1193C27.8187 28.0429 27.819 27.9195 27.8953 27.8435C27.9717 27.7675 28.0951 27.7677 28.1711 27.844L33.8391 33.5355C33.9152 33.6118 33.9149 33.7353 33.8386 33.8113C33.8003 33.8493 33.7505 33.8681 33.7005 33.8681Z" fill="#F18518"/>
<path d="M29.5457 28.439L29.5552 23.8372C29.5555 23.6756 29.4247 23.5444 29.2633 23.5439C29.1018 23.5436 28.9705 23.6744 28.9701 23.8359L28.9606 28.4378C28.7404 28.5147 28.5609 28.6745 28.4582 28.8814L24.9454 28.8743C24.7298 28.8739 24.5549 29.0479 24.5545 29.2635C24.5541 29.4792 24.7282 29.654 24.9437 29.6544L28.4566 29.6615C28.601 29.9557 28.9004 30.1607 29.2496 30.1615C29.7395 30.1625 30.1387 29.7648 30.1397 29.275C30.1405 28.8881 29.8912 28.5613 29.5457 28.439Z" fill="#253757"/>
<path d="M29.2528 29.7677C29.528 29.7677 29.7511 29.5446 29.7511 29.2694C29.7511 28.9941 29.528 28.771 29.2528 28.771C28.9775 28.771 28.7544 28.9941 28.7544 29.2694C28.7544 29.5446 28.9775 29.7677 29.2528 29.7677Z" fill="white"/>
<path d="M29.2685 22.2952C29.5104 22.2952 29.7064 22.0992 29.7064 21.8573C29.7064 21.6155 29.5104 21.4194 29.2685 21.4194C29.0267 21.4194 28.8306 21.6155 28.8306 21.8573C28.8306 22.0992 29.0267 22.2952 29.2685 22.2952Z" fill="#253757"/>
<path d="M29.2367 37.1278C29.4785 37.1278 29.6746 36.9317 29.6746 36.6899C29.6746 36.448 29.4785 36.252 29.2367 36.252C28.9948 36.252 28.7988 36.448 28.7988 36.6899C28.7988 36.9317 28.9948 37.1278 29.2367 37.1278Z" fill="#253757"/>
<path d="M36.667 29.7249C36.9088 29.7249 37.1049 29.5289 37.1049 29.287C37.1049 29.0452 36.9088 28.8491 36.667 28.8491C36.4251 28.8491 36.2291 29.0452 36.2291 29.287C36.2291 29.5289 36.4251 29.7249 36.667 29.7249Z" fill="#253757"/>
<path d="M21.8346 29.6976C22.0764 29.6976 22.2725 29.5015 22.2725 29.2597C22.2725 29.0178 22.0764 28.8218 21.8346 28.8218C21.5927 28.8218 21.3967 29.0178 21.3967 29.2597C21.3967 29.5015 21.5927 29.6976 21.8346 29.6976Z" fill="#253757"/>
</g>
<defs>
<clipPath id="clip0">
<rect width="40" height="40" fill="white"/>
</clipPath>
</defs>
</svg>
