<svg width="195" height="194" viewBox="0 0 195 194" fill="none" xmlns="http://www.w3.org/2000/svg">
<g filter="url(#filter0_d)">
<circle cx="66.0001" cy="65" r="33" fill="#F18518"/>
</g>
<rect x="66.0001" width="2" height="12" fill="#C4C4C4"/>
<rect x="66.0001" y="120" width="2" height="12" fill="#C4C4C4"/>
<rect x="132" y="64" width="2" height="12" transform="rotate(90 132 64)" fill="#C4C4C4"/>
<rect x="12" y="64" width="2" height="12" transform="rotate(90 12 64)" fill="#C4C4C4"/>
<rect x="98.634" y="8.2085" width="1" height="10" transform="rotate(30 98.634 8.2085)" fill="#C4C4C4"/>
<rect x="38.634" y="112.131" width="1" height="10" transform="rotate(30 38.634 112.131)" fill="#C4C4C4"/>
<rect x="122.792" y="31.634" width="1" height="10" transform="rotate(60 122.792 31.634)" fill="#C4C4C4"/>
<rect x="18.8688" y="91.6338" width="1" height="10" transform="rotate(60 18.8688 91.6338)" fill="#C4C4C4"/>
<rect x="123.792" y="96.634" width="1" height="10" transform="rotate(120 123.792 96.634)" fill="#C4C4C4"/>
<rect x="19.8688" y="36.6335" width="1" height="10" transform="rotate(120 19.8688 36.6335)" fill="#C4C4C4"/>
<rect x="100.366" y="120.792" width="1" height="10" transform="rotate(150 100.366 120.792)" fill="#C4C4C4"/>
<rect x="40.3662" y="16.8682" width="1" height="10" transform="rotate(150 40.3662 16.8682)" fill="#C4C4C4"/>
<rect x="119.12" y="50.6504" width="1.5" height="61.0335" transform="rotate(75 119.12 50.6504)" fill="#24243B"/>
<rect x="44.7998" y="29.2417" width="2.5" height="47.4166" transform="rotate(-30 44.7998 29.2417)" fill="#24243B"/>
<defs>
<filter id="filter0_d" x="1.00012" y="0" width="194" height="194" filterUnits="userSpaceOnUse" color-interpolation-filters="sRGB">
<feFlood flood-opacity="0" result="BackgroundImageFix"/>
<feColorMatrix in="SourceAlpha" type="matrix" values="0 0 0 0 0 0 0 0 0 0 0 0 0 0 0 0 0 0 127 0"/>
<feOffset dx="32" dy="32"/>
<feGaussianBlur stdDeviation="32"/>
<feColorMatrix type="matrix" values="0 0 0 0 0.337255 0 0 0 0 0.8 0 0 0 0 0.94902 0 0 0 0.05 0"/>
<feBlend mode="normal" in2="BackgroundImageFix" result="effect1_dropShadow"/>
<feBlend mode="normal" in="SourceGraphic" in2="effect1_dropShadow" result="shape"/>
</filter>
</defs>
</svg>
