<svg width="29" height="35" viewBox="0 0 29 35" fill="none" xmlns="http://www.w3.org/2000/svg">
<path d="M25.9464 30.878C25.9464 31.8717 25.1367 32.6446 24.1798 32.6446H4.08517C3.09148 32.6446 2.31861 31.8717 2.31861 30.878V11.3722H8.42797C10.0473 11.3722 11.3722 10.0473 11.3722 8.42797V2.31861H24.2166C24.6951 2.31861 25.1367 2.50263 25.4679 2.83386C25.7992 3.16509 25.9832 3.60673 25.9832 4.08517V14.3165L28.3018 11.9979V4.08517C28.3018 2.98107 27.8601 1.95058 27.0873 1.17771C26.3144 0.404837 25.2839 0 24.2166 0L10.8202 0.0368033C9.71609 0.0368033 8.7224 0.478444 7.94953 1.21451L1.17771 7.98633C0.404837 8.7592 0 9.78969 0 10.8938V30.9148C0 33.1598 1.84017 35 4.08517 35H24.2166C26.4616 35 28.3018 33.1598 28.3018 30.9148V24.2902L25.9832 26.6088V30.878H25.9464ZM9.01682 3.42271V8.46477C9.01682 8.796 8.7592 9.09043 8.39117 9.09043H3.38591L9.01682 3.42271Z" fill="white"/>
</svg>
