<svg width="35" height="35" viewBox="0 0 35 35" fill="none" xmlns="http://www.w3.org/2000/svg">
<path d="M21.2724 16.1199C21.2724 15.4943 20.7572 14.979 20.1315 14.979H8.17044C7.54479 14.979 7.02954 15.4943 7.02954 16.1199C7.02954 16.7456 7.54479 17.2608 8.17044 17.2608H20.1315C20.7572 17.2608 21.2724 16.7456 21.2724 16.1199Z" fill="white"/>
<path d="M6.99268 22.0085C6.99268 22.6342 7.50792 23.1494 8.13358 23.1494H17.1136C17.2608 23.0022 17.3712 22.855 17.5184 22.7078L19.3954 20.8308H8.17038C7.50792 20.8676 6.99268 21.3829 6.99268 22.0085Z" fill="white"/>
<path d="M6.99268 27.8969C6.99268 28.5594 7.50792 29.0379 8.13358 29.0379H14.5374C14.5374 28.9274 14.5742 28.8538 14.5742 28.7434L14.8318 27.6393C14.9054 27.3081 14.979 27.0137 15.0894 26.7192H8.17038C7.50792 26.756 6.99268 27.2713 6.99268 27.8969Z" fill="white"/>
<path d="M25.9464 30.878C25.9464 31.8717 25.1367 32.6446 24.1798 32.6446H4.08517C3.09148 32.6446 2.31861 31.8717 2.31861 30.878V11.3722H8.42797C10.0473 11.3722 11.3722 10.0473 11.3722 8.42797V2.31861H24.2166C24.6951 2.31861 25.1367 2.50263 25.4679 2.83386C25.7992 3.16509 25.9832 3.60673 25.9832 4.08517V14.3165L28.3018 11.9979V4.08517C28.3018 2.98107 27.8601 1.95058 27.0873 1.17771C26.3144 0.404837 25.2839 0 24.2166 0L10.8202 0.0368033C9.71609 0.0368033 8.7224 0.478444 7.94953 1.21451L1.17771 7.98633C0.404837 8.7592 0 9.78969 0 10.8938V30.9148C0 33.1598 1.84017 35 4.08517 35H24.2166C26.4616 35 28.3018 33.1598 28.3018 30.9148V24.2902L25.9832 26.6088V30.878H25.9464ZM9.01682 3.42271V8.46477C9.01682 8.796 8.7592 9.09043 8.39117 9.09043H3.38591L9.01682 3.42271Z" fill="white"/>
<path d="M27.5791 15.3065L19.4065 23.4768L22.9192 26.9905L31.0918 18.8202L27.5791 15.3065Z" fill="white"/>
<path d="M34.2271 14.3165L32.0557 12.1451C31.6877 11.7771 31.0988 11.7403 30.7676 12.0715L28.8906 13.9485L32.3869 17.4448L34.2639 15.5679C34.6319 15.2734 34.5951 14.6846 34.2271 14.3165Z" fill="white"/>
<path d="M16.4143 29.1483C16.3039 29.6267 16.7823 30.0684 17.224 29.958L18.3281 29.7003C19.5058 29.4427 20.6099 28.9275 21.5667 28.1914L18.144 24.8423C17.408 25.7992 16.8927 26.8665 16.6351 28.081L16.4143 29.1483Z" fill="white"/>
</svg>
