<svg width="80" height="80" viewBox="0 0 80 80" fill="none" xmlns="http://www.w3.org/2000/svg">
<g clip-path="url(#clip0)">
<path d="M25.1087 76.6663H54.8925C50.5785 70.7847 50.8916 64.903 55.8339 59.0215C45.2784 55.8813 34.7228 55.8813 24.1672 59.0215C29.1095 64.903 29.4227 70.7847 25.1087 76.6663Z" fill="#3A556A"/>
<path d="M0.000488281 53.3329V58.8122C0.000488281 60.3884 1.23657 61.6663 2.7613 61.6663H77.2397C78.7644 61.6663 80.0005 60.3884 80.0005 58.8122V53.3329H0.000488281Z" fill="#D5D6DB"/>
<path d="M80.0005 53.333V3.59236C80.0005 2.06837 78.7644 0.832947 77.2397 0.832947H2.7613C1.23657 0.832947 0.000488281 2.06837 0.000488281 3.59236V53.333H80.0005Z" fill="#3A556A"/>
<path d="M75.8337 5.83295V49.1663H4.16707V5.83295H75.8337Z" fill="#27A2DB"/>
<path d="M16.6672 74.1663H63.3339V79.1663H16.6672V74.1663Z" fill="#64798A"/>
<path d="M30.8337 37.4996H23.3337V26.6663H30.8337V37.4996Z" fill="#F7BE56"/>
<path d="M11.6701 49.1663C11.6629 46.3784 11.6674 43.3683 11.7065 41.545C11.7949 37.4296 15.0939 35.4966 15.0939 35.4966L21.9167 32.4996L26.1065 34.5032L26.6672 35.7845L27.2301 34.5032L31.4178 32.4996L38.2406 35.4966C38.2406 35.4966 41.5395 37.4296 41.6279 41.545C41.6671 43.3683 41.6716 46.3784 41.6644 49.1663H11.6701Z" fill="#E56353"/>
<path d="M30.739 31.6663L27.5005 34.9041L29.5838 38.333L31.6672 32.8126L30.739 31.6663Z" fill="#EBF0F3"/>
<path d="M23.4286 31.6663L26.6672 34.9041L24.5838 38.333L22.5005 32.8126L23.4286 31.6663Z" fill="#EBF0F3"/>
<path d="M19.8408 21.6676C20.2924 21.6363 20.73 22.1699 20.8183 22.8596C20.9065 23.5492 20.6119 24.1336 20.1603 24.165C19.7087 24.1964 19.2711 23.6627 19.1829 22.9731C19.0946 22.2835 19.3892 21.699 19.8408 21.6676Z" fill="#F7BE56"/>
<path d="M34.4867 21.6676C33.5835 21.6363 32.7082 22.1699 32.5317 22.8596C32.3553 23.5492 32.9444 24.1336 33.8476 24.165C34.7509 24.1964 35.6261 23.6627 35.8026 22.9731C35.9791 22.2835 35.3899 21.699 34.4867 21.6676Z" fill="#F7BE56"/>
<path d="M27.5004 30.8329C31.1823 30.8329 34.1671 26.9154 34.1671 22.0829C34.1671 17.2505 31.1823 13.3329 27.5004 13.3329C23.8185 13.3329 20.8337 17.2505 20.8337 22.0829C20.8337 26.9154 23.8185 30.8329 27.5004 30.8329Z" fill="#FCD462"/>
<path d="M20.2022 25.8329H19.9057C19.9057 25.8329 19.0493 20.4112 19.181 17.4175C19.3128 14.4239 21.2712 11.1993 25.9342 10.8648C30.1265 10.5641 32.1932 12.4282 33.3462 14.8563C34.4992 17.2845 34.2356 21.4423 33.7744 23.2385C33.3133 25.0346 33.2803 25.8329 33.2803 25.8329H32.8191C32.8191 25.8329 32.484 18.2801 31.924 17.6482C31.364 17.0162 27.9637 22.7194 23.5294 17.6171C23.5294 17.6171 19.5613 18.9478 20.2022 25.8329Z" fill="#4D5C7D"/>
<path d="M69.1672 10.8329H41.6672V25.197H45.7572V29.9996L50.8245 25.197H69.1672V10.8329Z" fill="#EBF0F3"/>
<path d="M49.6587 16.7444C48.7313 16.7444 47.9795 17.4961 47.9795 18.4235C47.9795 19.3508 48.7313 20.1026 49.6587 20.1026C50.5861 20.1026 51.3379 19.3508 51.3379 18.4235C51.3379 17.4961 50.5861 16.7444 49.6587 16.7444Z" fill="#3A556A"/>
<path d="M55.7934 16.7444C54.866 16.7444 54.1143 17.4961 54.1143 18.4235C54.1143 19.3508 54.866 20.1026 55.7934 20.1026C56.7208 20.1026 57.4726 19.3508 57.4726 18.4235C57.4726 17.4961 56.7208 16.7444 55.7934 16.7444Z" fill="#3A556A"/>
<path d="M61.9287 16.7444C61.0013 16.7444 60.2495 17.4961 60.2495 18.4235C60.2495 19.3508 61.0013 20.1026 61.9287 20.1026C62.8561 20.1026 63.6079 19.3508 63.6079 18.4235C63.6079 17.4961 62.8561 16.7444 61.9287 16.7444Z" fill="#3A556A"/>
</g>
<defs>
<clipPath id="clip0">
<rect width="80" height="80" fill="white" transform="translate(0.000488281 -0.000366211)"/>
</clipPath>
</defs>
</svg>
