<svg width="81" height="80" viewBox="0 0 81 80" fill="none" xmlns="http://www.w3.org/2000/svg">
<g clip-path="url(#clip0)">
<path d="M68.8405 21.4497C67.8434 9.4496 57.7721 0.0496216 45.5072 0.0496216C39.0257 0.0496216 33.2423 2.64959 28.9544 6.84963C27.2593 6.0496 25.4645 5.64966 23.4702 5.64966C16.3904 5.64966 10.6068 11.4496 10.6068 18.5498C10.6068 19.5498 10.7065 20.6497 11.0056 21.5498C5.12258 22.7496 0.635376 28.0497 0.635376 34.3496C0.635376 41.4496 6.41878 47.2497 13.4987 47.2497H67.5443C74.624 47.2497 80.4076 41.4498 80.4076 34.3496C80.4074 27.6497 75.322 22.1496 68.8405 21.4497Z" fill="#27A2DB"/>
<path d="M9.51 28.3496L13.9972 27.4497L13.4986 25.5496L11.9031 25.8496C9.60966 26.2495 7.61537 27.6496 6.41882 29.5496C7.3164 29.0497 8.31346 28.5497 9.51 28.3496Z" fill="#2D93BA"/>
<path d="M68.4418 25.8496L64.852 25.4497L64.5528 21.8497C63.6554 12.0496 55.3791 4.44971 45.607 4.44971C40.5215 4.44971 35.7352 6.4497 32.1454 10.0497L29.9516 12.2498L27.1596 10.9497C25.963 10.4497 24.7665 10.1497 23.5698 10.1497C20.5782 10.1497 17.9857 11.6496 16.49 14.0497C17.7864 13.1498 19.4815 12.6497 21.1767 12.6497C22.3732 12.6497 23.6696 12.9497 24.7665 13.4498L27.5585 14.7498L29.7523 12.5498C33.3421 8.94973 38.1284 6.94974 43.2139 6.94974C52.986 6.94974 61.362 14.6497 62.1598 24.3497L62.4589 27.9497L66.0487 28.3497C70.4362 28.8497 73.7267 32.4496 73.7267 36.8497C73.7267 38.5497 73.2281 40.1497 72.3307 41.5497C74.6241 40.0498 76.2196 37.3497 76.2196 34.4497C76.0202 29.9497 72.7295 26.2497 68.4418 25.8496Z" fill="#2D93BA"/>
<path d="M61.6611 46.0497H19.3818V65.9497H61.6611V46.0497Z" fill="#64798A"/>
<path d="M63.0571 31.9497H17.9858C17.188 31.9497 16.4901 32.6496 16.4901 33.4497V44.4497C16.4901 45.3497 17.0884 45.9496 17.9858 45.9496H63.0571C63.8549 45.9496 64.5528 45.2497 64.5528 44.4497V33.5498C64.4531 32.6496 63.8549 31.9497 63.0571 31.9497Z" fill="#EBF0F3"/>
<path d="M63.0571 65.9497H17.9858C17.188 65.9497 16.4901 66.6496 16.4901 67.4497V78.4497C16.4901 79.3497 17.0884 79.9496 17.9858 79.9496H63.0571C63.8549 79.9496 64.5528 79.2497 64.5528 78.4497V67.5498C64.4531 66.6496 63.8549 65.9497 63.0571 65.9497Z" fill="#EBF0F3"/>
<path d="M63.0571 48.9497H17.9858C17.188 48.9497 16.4901 49.6496 16.4901 50.4497V61.4497C16.4901 62.3497 17.0884 62.9497 17.9858 62.9497H63.0571C63.8549 62.9497 64.5528 62.2497 64.5528 61.4497V50.5498C64.4531 49.6496 63.8549 48.9497 63.0571 48.9497Z" fill="#EBF0F3"/>
<path d="M22.1739 41.8497C23.7159 41.8497 24.9659 40.5961 24.9659 39.0497C24.9659 37.5032 23.7159 36.2496 22.1739 36.2496C20.6319 36.2496 19.3818 37.5032 19.3818 39.0497C19.3818 40.5961 20.6319 41.8497 22.1739 41.8497Z" fill="#3A556A"/>
<path d="M22.2736 40.9496C23.375 40.9496 24.2679 40.0542 24.2679 38.9496C24.2679 37.845 23.375 36.9496 22.2736 36.9496C21.1722 36.9496 20.2793 37.845 20.2793 38.9496C20.2793 40.0542 21.1722 40.9496 22.2736 40.9496Z" fill="#64798A"/>
<path d="M29.0542 40.4497C29.8252 40.4497 30.4502 39.8229 30.4502 39.0497C30.4502 38.2765 29.8252 37.6497 29.0542 37.6497C28.2832 37.6497 27.6582 38.2765 27.6582 39.0497C27.6582 39.8229 28.2832 40.4497 29.0542 40.4497Z" fill="#E56353"/>
<path d="M34.7379 40.4497C35.5089 40.4497 36.134 39.8229 36.134 39.0497C36.134 38.2765 35.5089 37.6497 34.7379 37.6497C33.9669 37.6497 33.3419 38.2765 33.3419 39.0497C33.3419 39.8229 33.9669 40.4497 34.7379 40.4497Z" fill="#44C4A1"/>
<path d="M22.1739 58.8497C23.7159 58.8497 24.9659 57.5961 24.9659 56.0497C24.9659 54.5033 23.7159 53.2497 22.1739 53.2497C20.6319 53.2497 19.3818 54.5033 19.3818 56.0497C19.3818 57.5961 20.6319 58.8497 22.1739 58.8497Z" fill="#3A556A"/>
<path d="M22.2736 57.9496C23.375 57.9496 24.2679 57.0541 24.2679 55.9496C24.2679 54.845 23.375 53.9496 22.2736 53.9496C21.1722 53.9496 20.2793 54.845 20.2793 55.9496C20.2793 57.0541 21.1722 57.9496 22.2736 57.9496Z" fill="#64798A"/>
<path d="M29.0542 57.4497C29.8252 57.4497 30.4502 56.8229 30.4502 56.0497C30.4502 55.2765 29.8252 54.6497 29.0542 54.6497C28.2832 54.6497 27.6582 55.2765 27.6582 56.0497C27.6582 56.8229 28.2832 57.4497 29.0542 57.4497Z" fill="#E56353"/>
<path d="M34.7379 57.4497C35.5089 57.4497 36.134 56.8229 36.134 56.0497C36.134 55.2765 35.5089 54.6497 34.7379 54.6497C33.9669 54.6497 33.3419 55.2765 33.3419 56.0497C33.3419 56.8229 33.9669 57.4497 34.7379 57.4497Z" fill="#44C4A1"/>
<path d="M22.1739 75.8497C23.7159 75.8497 24.9659 74.5961 24.9659 73.0497C24.9659 71.5033 23.7159 70.2497 22.1739 70.2497C20.6319 70.2497 19.3818 71.5033 19.3818 73.0497C19.3818 74.5961 20.6319 75.8497 22.1739 75.8497Z" fill="#3A556A"/>
<path d="M22.2736 74.9496C23.375 74.9496 24.2679 74.0541 24.2679 72.9496C24.2679 71.845 23.375 70.9496 22.2736 70.9496C21.1722 70.9496 20.2793 71.845 20.2793 72.9496C20.2793 74.0541 21.1722 74.9496 22.2736 74.9496Z" fill="#64798A"/>
<path d="M29.0542 74.4497C29.8252 74.4497 30.4502 73.8229 30.4502 73.0497C30.4502 72.2765 29.8252 71.6497 29.0542 71.6497C28.2832 71.6497 27.6582 72.2765 27.6582 73.0497C27.6582 73.8229 28.2832 74.4497 29.0542 74.4497Z" fill="#E56353"/>
<path d="M34.7379 74.4497C35.5089 74.4497 36.134 73.8229 36.134 73.0497C36.134 72.2765 35.5089 71.6497 34.7379 71.6497C33.9669 71.6497 33.3419 72.2765 33.3419 73.0497C33.3419 73.8229 33.9669 74.4497 34.7379 74.4497Z" fill="#44C4A1"/>
<path d="M43.2136 34.2497H40.8206V36.6496H43.2136V34.2497Z" fill="#D5D6DB"/>
<path d="M48 34.2497H45.6069V36.6496H48V34.2497Z" fill="#D5D6DB"/>
<path d="M52.7863 34.2497H50.3932V36.6496H52.7863V34.2497Z" fill="#D5D6DB"/>
<path d="M57.473 34.2497H55.08V36.6496H57.473V34.2497Z" fill="#D5D6DB"/>
<path d="M62.2593 34.2497H59.8662V36.6496H62.2593V34.2497Z" fill="#D5D6DB"/>
<path d="M45.6068 36.6496H43.2137V39.0495H45.6068V36.6496Z" fill="#D5D6DB"/>
<path d="M50.3932 36.6496H48.0001V39.0495H50.3932V36.6496Z" fill="#D5D6DB"/>
<path d="M55.1796 36.6496H52.7865V39.0495H55.1796V36.6496Z" fill="#D5D6DB"/>
<path d="M59.8661 36.6496H57.473V39.0495H59.8661V36.6496Z" fill="#D5D6DB"/>
<path d="M43.2136 39.0497H40.8206V41.4496H43.2136V39.0497Z" fill="#D5D6DB"/>
<path d="M48 39.0497H45.6069V41.4496H48V39.0497Z" fill="#D5D6DB"/>
<path d="M52.7863 39.0497H50.3932V41.4496H52.7863V39.0497Z" fill="#D5D6DB"/>
<path d="M57.473 39.0497H55.08V41.4496H57.473V39.0497Z" fill="#D5D6DB"/>
<path d="M62.2593 39.0497H59.8662V41.4496H62.2593V39.0497Z" fill="#D5D6DB"/>
<path d="M45.6068 41.4496H43.2137V43.8496H45.6068V41.4496Z" fill="#D5D6DB"/>
<path d="M50.3932 41.4496H48.0001V43.8496H50.3932V41.4496Z" fill="#D5D6DB"/>
<path d="M55.1796 41.4496H52.7865V43.8496H55.1796V41.4496Z" fill="#D5D6DB"/>
<path d="M59.8661 41.4496H57.473V43.8496H59.8661V41.4496Z" fill="#D5D6DB"/>
<path d="M43.2136 51.2497H40.8206V53.6496H43.2136V51.2497Z" fill="#D5D6DB"/>
<path d="M48 51.2497H45.6069V53.6496H48V51.2497Z" fill="#D5D6DB"/>
<path d="M52.7863 51.2497H50.3932V53.6496H52.7863V51.2497Z" fill="#D5D6DB"/>
<path d="M57.473 51.2497H55.08V53.6496H57.473V51.2497Z" fill="#D5D6DB"/>
<path d="M62.2593 51.2497H59.8662V53.6496H62.2593V51.2497Z" fill="#D5D6DB"/>
<path d="M45.6068 53.6497H43.2137V56.0496H45.6068V53.6497Z" fill="#D5D6DB"/>
<path d="M50.3932 53.6497H48.0001V56.0496H50.3932V53.6497Z" fill="#D5D6DB"/>
<path d="M55.1796 53.6497H52.7865V56.0496H55.1796V53.6497Z" fill="#D5D6DB"/>
<path d="M59.8661 53.6497H57.473V56.0496H59.8661V53.6497Z" fill="#D5D6DB"/>
<path d="M43.2136 56.0497H40.8206V58.4496H43.2136V56.0497Z" fill="#D5D6DB"/>
<path d="M48 56.0497H45.6069V58.4496H48V56.0497Z" fill="#D5D6DB"/>
<path d="M52.7863 56.0497H50.3932V58.4496H52.7863V56.0497Z" fill="#D5D6DB"/>
<path d="M57.473 56.0497H55.08V58.4496H57.473V56.0497Z" fill="#D5D6DB"/>
<path d="M62.2593 56.0497H59.8662V58.4496H62.2593V56.0497Z" fill="#D5D6DB"/>
<path d="M45.6068 58.4496H43.2137V60.8496H45.6068V58.4496Z" fill="#D5D6DB"/>
<path d="M50.3932 58.4496H48.0001V60.8496H50.3932V58.4496Z" fill="#D5D6DB"/>
<path d="M55.1796 58.4496H52.7865V60.8496H55.1796V58.4496Z" fill="#D5D6DB"/>
<path d="M59.8661 58.4496H57.473V60.8496H59.8661V58.4496Z" fill="#D5D6DB"/>
<path d="M43.2136 68.2498H40.8206V70.6497H43.2136V68.2498Z" fill="#D5D6DB"/>
<path d="M48 68.2498H45.6069V70.6497H48V68.2498Z" fill="#D5D6DB"/>
<path d="M52.7863 68.2498H50.3932V70.6497H52.7863V68.2498Z" fill="#D5D6DB"/>
<path d="M57.473 68.2498H55.08V70.6497H57.473V68.2498Z" fill="#D5D6DB"/>
<path d="M62.2593 68.2498H59.8662V70.6497H62.2593V68.2498Z" fill="#D5D6DB"/>
<path d="M45.6068 70.6497H43.2137V73.0496H45.6068V70.6497Z" fill="#D5D6DB"/>
<path d="M50.3932 70.6497H48.0001V73.0496H50.3932V70.6497Z" fill="#D5D6DB"/>
<path d="M55.1796 70.6497H52.7865V73.0496H55.1796V70.6497Z" fill="#D5D6DB"/>
<path d="M59.8661 70.6497H57.473V73.0496H59.8661V70.6497Z" fill="#D5D6DB"/>
<path d="M43.2136 73.0497H40.8206V75.4497H43.2136V73.0497Z" fill="#D5D6DB"/>
<path d="M48 73.0497H45.6069V75.4497H48V73.0497Z" fill="#D5D6DB"/>
<path d="M52.7863 73.0497H50.3932V75.4497H52.7863V73.0497Z" fill="#D5D6DB"/>
<path d="M57.473 73.0497H55.08V75.4497H57.473V73.0497Z" fill="#D5D6DB"/>
<path d="M62.2593 73.0497H59.8662V75.4497H62.2593V73.0497Z" fill="#D5D6DB"/>
<path d="M45.6068 75.3497H43.2137V77.7497H45.6068V75.3497Z" fill="#D5D6DB"/>
<path d="M50.3932 75.3497H48.0001V77.7497H50.3932V75.3497Z" fill="#D5D6DB"/>
<path d="M55.1796 75.3497H52.7865V77.7497H55.1796V75.3497Z" fill="#D5D6DB"/>
<path d="M59.8661 75.3497H57.473V77.7497H59.8661V75.3497Z" fill="#D5D6DB"/>
</g>
<defs>
<clipPath id="clip0">
<rect width="79.7721" height="80" fill="white" transform="translate(0.635376 -0.000366211)"/>
</clipPath>
</defs>
</svg>
