<svg width="40" height="40" viewBox="0 0 40 40" fill="none" xmlns="http://www.w3.org/2000/svg">
<path d="M25.6981 31.7143C23.7083 33.0382 21.3192 33.8096 18.75 33.8096C11.8135 33.8096 6.19039 28.1865 6.19039 21.25C6.19039 14.3135 11.8135 8.69037 18.75 8.69037L18.75 2.5C8.39467 2.5 0 10.8946 0 21.25C0 31.6053 8.39464 40 18.75 40C22.4068 40 25.8191 38.9532 28.7035 37.1429C27.7143 35.1429 26.8571 33.8096 25.6981 31.7143Z" fill="#F37735"/>
<path d="M33.8921 18.5C34.2857 25.7143 31.7143 28.8571 28.5714 31.4286C29.7143 33.4286 30.5714 34.8571 31.7143 36.5714C36 33.1429 40 28.5714 40 18.5C40 8.42857 31.7173 0 21.5 0V6.10783C28.344 6.10783 33.4985 11.2857 33.8921 18.5Z" fill="#509FD7"/>
<path d="M12 17H14.5V28H12V17Z" fill="#509FD7"/>
<path d="M15.5 12.5H18V28H15.5V12.5Z" fill="#FEED32"/>
<path d="M19.5 21.5H22V28H19.5V21.5Z" fill="#E7A04E"/>
<path d="M23.5 19H26V28H23.5V19Z" fill="#ECECEC"/>
</svg>
