<svg width="80" height="80" viewBox="0 0 80 80" fill="none" xmlns="http://www.w3.org/2000/svg">
<g clip-path="url(#clip0)">
<path d="M60.2631 23.3478H55.0098C44.2401 23.3478 35.4291 32.1588 35.4291 42.9285C35.4291 50.7758 40.1087 57.5831 46.814 60.6995C47.1436 60.8521 47.4414 61.0652 47.6953 61.3239L54.8328 68.6122C55.0617 68.8465 55.459 68.6842 55.459 68.3564V63.4834C55.459 62.945 55.8954 62.5092 56.4338 62.5092H60.2631C71.0322 62.5092 79.8438 53.6976 79.8438 42.9285C79.8438 32.1588 71.0322 23.3478 60.2631 23.3478Z" fill="#FFC143"/>
<path d="M79.8432 42.9285C79.8432 51.5003 74.2634 58.83 66.5571 61.4655C72.049 57.9871 75.7136 51.8555 75.7136 44.9097C75.7136 39.5246 73.5108 34.6289 69.9616 31.0816C66.4142 27.5324 61.5186 25.3296 56.1334 25.3296H50.8795C48.681 25.3296 46.5631 25.6958 44.5868 26.3733C47.6099 24.4592 51.1865 23.3484 55.0092 23.3484H60.2631C65.6482 23.3484 70.5439 25.5512 74.0913 29.1004C77.6405 32.6477 79.8432 37.5434 79.8432 42.9285Z" fill="#FFB509"/>
<path d="M19.4245 11.4062H24.6778C35.4475 11.4062 44.2585 20.2173 44.2585 30.987C44.2585 38.8349 39.5789 45.6416 32.8736 48.758C32.544 48.9112 32.2462 49.1236 31.9923 49.383L24.8548 56.6712C24.6259 56.905 24.2286 56.7427 24.2286 56.4155V51.5424C24.2286 51.0041 23.7922 50.5677 23.2538 50.5677H19.4245C8.65541 50.5677 -0.15625 41.7567 -0.15625 30.987C-0.15625 20.2173 8.65541 11.4062 19.4245 11.4062Z" fill="#FF5757"/>
<path d="M44.2592 30.987C44.2592 34.9103 43.0898 38.5737 41.0811 41.6468C39.073 44.7187 36.2264 47.1998 32.8737 48.758C32.5435 48.9112 32.2462 49.123 31.9923 49.3836L24.8555 56.6719C24.6254 56.905 24.228 56.7427 24.228 56.4161V51.5418C24.228 51.5003 24.225 51.4582 24.2201 51.4179L26.2123 49.3836C26.4668 49.123 26.7641 48.9112 27.0936 48.758C30.4469 47.1998 33.293 44.7187 35.3017 41.6468C37.3103 38.5737 38.4792 34.9103 38.4792 30.987C38.4792 20.3089 29.8164 11.5558 19.1719 11.4081C19.2555 11.4062 19.3409 11.4062 19.4246 11.4062H24.6785C35.4482 11.4062 44.2592 20.2173 44.2592 30.987Z" fill="#FF4343"/>
<path d="M49.067 36.2756H52.037C52.7029 36.2756 53.243 35.7355 53.243 35.0696C53.243 34.4031 52.7029 33.8629 52.037 33.8629H49.067C48.4011 33.8629 47.861 34.4031 47.861 35.0696C47.861 35.7355 48.4011 36.2756 49.067 36.2756Z" fill="#5A5A5A"/>
<path d="M63.763 36.2756C64.4295 36.2756 64.9696 35.7355 64.9696 35.0696C64.9696 34.4031 64.4295 33.8629 63.763 33.8629H55.6227C54.9562 33.8629 54.4166 34.4031 54.4166 35.0696C54.4166 35.7355 54.9562 36.2756 55.6227 36.2756H63.763Z" fill="#5A5A5A"/>
<path d="M49.067 41.9898H70.3335C70.9994 41.9898 71.5396 41.4496 71.5396 40.7837C71.5396 40.1172 70.9994 39.5776 70.3335 39.5776H49.067C48.4011 39.5776 47.861 40.1172 47.861 40.7837C47.861 41.4496 48.4011 41.9898 49.067 41.9898Z" fill="#5A5A5A"/>
<path d="M49.067 46.2555H70.3335C70.9994 46.2555 71.5396 45.7159 71.5396 45.0494C71.5396 44.3835 70.9994 43.8434 70.3335 43.8434H49.067C48.4011 43.8434 47.861 44.3835 47.861 45.0494C47.861 45.7159 48.4011 46.2555 49.067 46.2555Z" fill="#5A5A5A"/>
<path d="M49.067 50.522H70.3335C70.9994 50.522 71.5396 49.9818 71.5396 49.3159C71.5396 48.6494 70.9994 48.1099 70.3335 48.1099H49.067C48.4011 48.1099 47.861 48.6494 47.861 49.3159C47.861 49.9818 48.4011 50.522 49.067 50.522Z" fill="#5A5A5A"/>
<path d="M49.067 54.7365H59.3264C59.9929 54.7365 60.5325 54.1969 60.5325 53.5304C60.5325 52.8645 59.9929 52.3243 59.3264 52.3243H49.067C48.4011 52.3243 47.861 52.8645 47.861 53.5304C47.861 54.1969 48.4011 54.7365 49.067 54.7365Z" fill="#5A5A5A"/>
<path d="M21.3606 37.8096C20.3499 37.8096 19.532 38.6519 19.532 39.6626C19.532 40.6489 20.3261 41.515 21.3606 41.515C22.3952 41.515 23.213 40.6489 23.213 39.6626C23.2136 38.6519 22.3713 37.8096 21.3606 37.8096Z" fill="#5A5A5A"/>
<path d="M24.1035 32.1552C24.7536 31.6498 26.7989 30.0134 26.7989 27.7515C26.7989 25.4901 24.7536 23.7817 21.6731 23.7817C18.4254 23.7817 16.9331 25.7068 16.9331 27.0056C16.9331 27.9443 17.7272 28.3777 18.3772 28.3777C19.6766 28.3777 19.1469 26.5247 21.6011 26.5247C22.8047 26.5247 23.7666 27.0538 23.7666 28.161C23.7666 29.4605 22.4196 30.2063 21.6255 30.8801C20.9273 31.4813 20.0136 32.4683 20.0136 34.5374C20.0136 35.7886 20.3505 36.1493 21.3368 36.1493C22.516 36.1493 22.7565 35.6201 22.7565 35.163C22.7565 33.9118 22.7803 33.1897 24.1035 32.1552Z" fill="#5A5A5A"/>
</g>
<defs>
<clipPath id="clip0">
<rect width="80" height="80" fill="white"/>
</clipPath>
</defs>
</svg>
