<svg width="40" height="40" viewBox="0 0 40 40" fill="none" xmlns="http://www.w3.org/2000/svg">
<path d="M38.7236 23.6154L33.5398 21.578L32.2972 20.9438L32.2978 20.9412L32.295 20.9427L32.2947 20.9425L32.2946 20.9429L32.2919 20.9443V19.7876H32.2918C33.0082 19.1843 33.467 18.2719 33.467 17.2554V16.9871C33.8219 16.9871 34.1097 16.4073 34.1097 15.6921C34.1097 15.6324 34.1049 15.5754 34.101 15.5179L34.1035 15.5117C35.1827 10.5468 32.0754 10.7931 32.0754 10.7931C32.0754 10.7931 28.6789 8.59663 26.8061 11.5143C25.6955 13.2445 25.9805 14.7746 26.3961 15.6613C26.396 15.6718 26.3946 15.6815 26.3946 15.6921C26.3946 16.4073 26.6823 16.9871 27.0373 16.9871V17.2554C27.0373 18.2719 27.496 19.1843 28.2124 19.7876H28.2124V20.9465L28.2054 20.9429L28.2053 20.9425L28.205 20.9427L28.2022 20.9412L28.2028 20.9438L26.9602 21.578L21.7764 23.6154C21.7764 23.6154 20.4068 27.2709 20.505 30.0682C20.505 30.0682 21.6388 30.7626 23.7228 31.3129C23.8866 31.3588 24.0505 31.4046 24.2274 31.4439C25.7937 31.8174 27.8187 32.086 30.25 31.9746C32.6813 32.086 34.7063 31.8174 36.2726 31.4439C36.4496 31.4046 36.6134 31.3588 36.7772 31.3129C38.8612 30.7626 39.995 30.0682 39.995 30.0682C40.0933 27.2709 38.7236 23.6154 38.7236 23.6154Z" fill="#B0B1B5"/>
<path d="M13.0398 21.578L11.7972 20.9438L11.7977 20.9412L11.795 20.9427L11.7947 20.9425L11.7946 20.9429L11.7918 20.9443V19.7876H11.7918C12.5082 19.1843 12.967 18.2719 12.967 17.2554V16.9871C13.3219 16.9871 13.6097 16.4073 13.6097 15.6921C13.6097 15.6324 13.6049 15.5754 13.601 15.5179L13.6035 15.5117C14.6827 10.5468 11.5754 10.7931 11.5754 10.7931C11.5754 10.7931 8.17894 8.59663 6.30611 11.5143C5.19555 13.2445 5.48049 14.7746 5.89613 15.6613C5.896 15.6718 5.89458 15.6815 5.89458 15.6921C5.89458 16.4073 6.18232 16.9871 6.5373 16.9871V17.2554C6.5373 18.2719 6.99601 19.1843 7.71242 19.7876H7.7124V20.9465L7.7054 20.9429L7.70533 20.9425L7.70501 20.9427L7.70224 20.9412L7.7028 20.9438L6.4602 21.578L1.27642 23.6154C1.27642 23.6154 -0.0932394 27.2709 0.00504763 30.0682C0.00504763 30.0682 1.13878 30.7626 3.22279 31.3129C3.38664 31.3588 3.55047 31.4046 3.72738 31.4439C5.29367 31.8174 7.31869 32.086 9.74999 31.9746C12.1813 32.086 14.2063 31.8174 15.7726 31.4439C15.9496 31.4046 16.1134 31.3588 16.2772 31.3129C18.3612 30.7626 19.4949 30.0682 19.4949 30.0682C19.5933 27.2709 18.2236 23.6154 18.2236 23.6154L13.0398 21.578Z" fill="#B0B1B5"/>
<path d="M16.5 21.1989C16.7716 22.784 18.2353 24 20 24C21.7647 24 23.2284 22.784 23.5 21.1989C22.877 20.792 22.9051 20.2326 22.9051 20.2326V18.5H17.095V20.2326C17.095 20.2326 17.123 20.7921 16.5 21.1989Z" fill="#D6B24E"/>
<path d="M24.5836 10.9534C24.5826 10.9534 24.5817 10.9537 24.5807 10.9537C24.5188 8.49364 22.4824 6.5 20 6.5H20C17.5176 6.5 15.4812 8.49364 15.4193 10.9537C15.4183 10.9537 15.4174 10.9534 15.4164 10.9534C14.9103 10.9534 14.5 11.7604 14.5 12.7558C14.5 13.7512 14.9103 14.5582 15.4164 14.5582V14.9315C15.4164 17.4442 17.479 19.5 20 19.5H20C22.521 19.5 24.5836 17.4442 24.5836 14.9315V14.5582C25.0897 14.5582 25.5 13.7512 25.5 12.7558C25.5 11.7604 25.0897 10.9534 24.5836 10.9534Z" fill="#FFD25A"/>
<path d="M22.3758 6.09416C22.3758 6.09416 17.6719 3.06388 15.0782 7.08918C13.0641 10.2149 14.3632 12.8727 15.0445 13.6749L15.7774 14V11.456C16.124 10.5361 16.7722 9.82651 17.9797 10.6622C18.9295 11.3196 19.7234 11.2434 20.3371 10.9086C21.6671 10.1831 23.2487 10.5449 24.0829 11.6298V14H24.6082L25.1846 12.6041C26.6793 5.75437 22.3758 6.09416 22.3758 6.09416Z" fill="#293B44"/>
<path d="M20.9481 21.5L23.5 22.6813L20.849 30L20.0693 28.3196L20 22.4136L20.9481 21.5Z" fill="#E6E7E8"/>
<path d="M33.493 32.405C33.493 32.405 31.9232 33.3378 29.0377 34.077C28.8109 34.1386 28.584 34.2002 28.339 34.253C26.1703 34.7547 23.3665 35.1154 20 34.9658L22.087 27.9961L23.4481 22.1968L24.5552 21L31.7326 23.7368C31.7326 23.7368 33.6291 28.6473 33.493 32.405Z" fill="#344E5C"/>
<path d="M23 20L20 21.2917L22.3401 22.5L23 20Z" fill="#DAD7DC"/>
<path d="M19.0519 21.5L16.5 22.6813L19.151 30L19.9307 28.3196L20 22.4136L19.0519 21.5Z" fill="#E6E7E8"/>
<path d="M20 34.9658C16.6336 35.1154 13.8297 34.7547 11.661 34.253C11.416 34.2002 11.1892 34.1386 10.9623 34.077C8.07677 33.3378 6.50699 32.405 6.50699 32.405C6.37091 28.6473 8.26734 23.7368 8.26734 23.7368L15.4449 21L16.5519 22.1968L17.913 27.9961L20 34.9658Z" fill="#344E5C"/>
<path d="M17 20L20 21.2917L17.6599 22.5L17 20Z" fill="#DAD7DC"/>
<path d="M21 30.8976L20 33L19 30.8976L19.5447 23.1584L19.0731 22.1434L20 21.5L20.9268 22.1434L20.4553 23.1584L21 30.8976Z" fill="#F37735"/>
<path d="M23.6797 24.7588L24.9362 25.4948L19.9999 35.0352L15.0637 25.4948L16.3202 24.7588L14.8842 23.969L15.4945 20.7919L17.1997 19.9213L19.9999 32.7735L22.8001 19.9213L24.5054 20.7919L25.1157 23.969L23.6797 24.7588Z" fill="#293B44"/>
<path d="M12.4341 27.6937L11.752 34.3083C11.5097 34.2544 11.2853 34.1916 11.0609 34.1288L12.4341 27.6937Z" fill="#293B44"/>
<path d="M28.9391 34.1288C28.7147 34.1916 28.4904 34.2544 28.248 34.3083L27.5659 27.6937L28.9391 34.1288Z" fill="#293B44"/>
</svg>
