<svg width="40" height="40" viewBox="0 0 40 40" fill="none" xmlns="http://www.w3.org/2000/svg">
<g clip-path="url(#clip0)">
<path d="M33.6167 5.18272C33.6187 4.2209 32.8292 3.4395 31.8534 3.43746L1.84637 3.37586C0.870473 3.37382 0.07784 4.15197 0.0758869 5.11388L0.0645752 10.6359L33.6053 10.7048L33.6167 5.18272Z" fill="#E56353"/>
<path d="M0.0645783 10.636L0.0211218 31.7874C0.0191687 32.7493 0.808628 33.5306 1.78445 33.5327L31.7915 33.5943C32.7673 33.5962 33.5599 32.8182 33.5619 31.8563L33.6053 10.7048L0.0645783 10.636Z" fill="#EBF0F3"/>
<path d="M5.83002 7.38562C6.70837 7.38562 7.42041 6.67358 7.42041 5.79523C7.42041 4.91688 6.70837 4.20483 5.83002 4.20483C4.95167 4.20483 4.23962 4.91688 4.23962 5.79523C4.23962 6.67358 4.95167 7.38562 5.83002 7.38562Z" fill="#D15241"/>
<path d="M27.8614 7.43067C28.7397 7.43067 29.4518 6.71862 29.4518 5.84027C29.4518 4.96192 28.7397 4.24988 27.8614 4.24988C26.983 4.24988 26.271 4.96192 26.271 5.84027C26.271 6.71862 26.983 7.43067 27.8614 7.43067Z" fill="#D15241"/>
<path d="M5.84172 0L5.82788 6.76815C6.44303 6.76937 6.94277 6.2789 6.94408 5.67246L6.95343 1.10033C6.95466 0.493972 6.45686 0.00130207 5.84172 0Z" fill="#E1E6E9"/>
<path d="M4.72555 1.09577L4.71619 5.6679C4.71497 6.27434 5.2126 6.76693 5.82783 6.76815L5.84174 2.27322e-06C5.22652 -0.00121842 4.72685 0.489336 4.72555 1.09577Z" fill="#EBF0F3"/>
<path d="M26.7558 1.14098L26.7465 5.71311C26.7452 6.31955 27.243 6.81213 27.8581 6.81344L27.872 0.0452904C27.2568 0.0440697 26.757 0.534624 26.7558 1.14098Z" fill="#EBF0F3"/>
<path d="M27.8721 0.0452881L27.8582 6.81343C28.4733 6.81465 28.9731 6.3241 28.9744 5.71766L28.9838 1.14553C28.9849 0.539178 28.4871 0.0465088 27.8721 0.0452881Z" fill="#E1E6E9"/>
<path d="M15.2672 16.0515L18.3796 16.0577L18.3859 12.9453L15.2734 12.9391L15.2672 16.0515Z" fill="#D5D6DB"/>
<path d="M20.8501 16.0604L23.9625 16.0667L23.9687 12.9542L20.8563 12.948L20.8501 16.0604Z" fill="#D5D6DB"/>
<path d="M26.4374 16.073L29.5498 16.0792L29.556 12.9668L26.4436 12.9606L26.4374 16.073Z" fill="#E56353"/>
<path d="M4.08886 21.1051L7.20129 21.1113L7.20752 17.9989L4.09509 17.9927L4.08886 21.1051Z" fill="#D5D6DB"/>
<path d="M9.67077 21.118L12.7832 21.1243L12.7894 18.0118L9.677 18.0056L9.67077 21.118Z" fill="#44C4A1"/>
<path d="M15.2566 21.1307L18.369 21.137L18.3752 18.0245L15.2628 18.0183L15.2566 21.1307Z" fill="#D5D6DB"/>
<path d="M20.8414 21.1437L23.9539 21.1499L23.9601 18.0375L20.8476 18.0313L20.8414 21.1437Z" fill="#D5D6DB"/>
<path d="M26.4247 21.1521L29.5371 21.1583L29.5433 18.0459L26.4309 18.0397L26.4247 21.1521Z" fill="#E56353"/>
<path d="M4.07812 26.1884L7.19055 26.1946L7.19678 23.0821L4.08435 23.0759L4.07812 26.1884Z" fill="#D5D6DB"/>
<path d="M9.66223 26.2014L12.7747 26.2076L12.7809 23.0952L9.66845 23.089L9.66223 26.2014Z" fill="#D5D6DB"/>
<path d="M15.2458 26.2097L18.3583 26.2159L18.3645 23.1035L15.2521 23.0973L15.2458 26.2097Z" fill="#D5D6DB"/>
<path d="M20.8287 26.2228L23.9412 26.229L23.9474 23.1166L20.8349 23.1104L20.8287 26.2228Z" fill="#D5D6DB"/>
<path d="M26.4162 26.235L29.5287 26.2412L29.5349 23.1288L26.4225 23.1226L26.4162 26.235Z" fill="#E56353"/>
<path d="M4.0675 31.2676L7.17993 31.2738L7.18616 28.1614L4.07373 28.1552L4.0675 31.2676Z" fill="#D5D6DB"/>
<path d="M9.64941 31.2805L12.7618 31.2867L12.7681 28.1743L9.65564 28.1681L9.64941 31.2805Z" fill="#D5D6DB"/>
<path d="M29.2527 40.0001C35.1766 40.0001 39.9788 35.1978 39.9788 29.274C39.9788 23.3501 35.1766 18.5479 29.2527 18.5479C23.3289 18.5479 18.5266 23.3501 18.5266 29.274C18.5266 35.1978 23.3289 40.0001 29.2527 40.0001Z" fill="#64798A"/>
<path d="M29.2527 38.0279C34.0874 38.0279 38.0068 34.1085 38.0068 29.2738C38.0068 24.4391 34.0874 20.5198 29.2527 20.5198C24.418 20.5198 20.4987 24.4391 20.4987 29.2738C20.4987 34.1085 24.418 38.0279 29.2527 38.0279Z" fill="white"/>
<path d="M20.9242 29.4705C20.9339 24.7533 24.7658 20.9371 29.483 20.9468C34.1642 20.9564 37.9561 24.7306 38.0042 29.3983C38.0047 29.3625 38.0071 29.3271 38.0072 29.2911C38.0171 24.4556 34.1052 20.5275 29.2694 20.5175C24.4339 20.5075 20.5059 24.4195 20.4959 29.2552C20.4859 34.0908 24.3979 38.0189 29.2335 38.0288C29.2694 38.0289 29.3048 38.0267 29.3407 38.0264C24.6731 37.9591 20.9146 34.1517 20.9242 29.4705Z" fill="#E1E6E9"/>
<path d="M33.7005 33.8682C33.6506 33.868 33.6007 33.8489 33.5628 33.8108L27.8948 28.1194C27.8187 28.043 27.819 27.9196 27.8953 27.8436C27.9717 27.7676 28.0951 27.7678 28.1711 27.8442L33.8391 33.5356C33.9152 33.6119 33.9149 33.7354 33.8386 33.8114C33.8003 33.8494 33.7505 33.8683 33.7005 33.8682Z" fill="#E56353"/>
<path d="M29.5458 28.4391L29.5552 23.8373C29.5556 23.6757 29.4248 23.5445 29.2633 23.5441C29.1019 23.5437 28.9705 23.6745 28.9701 23.8361L28.9607 28.4379C28.7405 28.5148 28.5609 28.6746 28.4582 28.8816L24.9454 28.8744C24.7299 28.874 24.555 29.0481 24.5546 29.2636C24.5542 29.4793 24.7282 29.6541 24.9438 29.6545L28.4566 29.6617C28.6011 29.9559 28.9005 30.1609 29.2497 30.1616C29.7396 30.1626 30.1387 29.7649 30.1398 29.2751C30.1406 28.8882 29.8913 28.5614 29.5458 28.4391Z" fill="#64798A"/>
<path d="M29.2528 29.7678C29.528 29.7678 29.7511 29.5447 29.7511 29.2695C29.7511 28.9942 29.528 28.7711 29.2528 28.7711C28.9775 28.7711 28.7544 28.9942 28.7544 29.2695C28.7544 29.5447 28.9775 29.7678 29.2528 29.7678Z" fill="white"/>
<path d="M29.2685 22.2952C29.5103 22.2952 29.7064 22.0992 29.7064 21.8573C29.7064 21.6155 29.5103 21.4194 29.2685 21.4194C29.0266 21.4194 28.8306 21.6155 28.8306 21.8573C28.8306 22.0992 29.0266 22.2952 29.2685 22.2952Z" fill="#3A556A"/>
<path d="M29.2366 37.1276C29.4785 37.1276 29.6745 36.9316 29.6745 36.6897C29.6745 36.4479 29.4785 36.2518 29.2366 36.2518C28.9948 36.2518 28.7987 36.4479 28.7987 36.6897C28.7987 36.9316 28.9948 37.1276 29.2366 37.1276Z" fill="#3A556A"/>
<path d="M36.6669 29.7249C36.9087 29.7249 37.1048 29.5289 37.1048 29.287C37.1048 29.0452 36.9087 28.8491 36.6669 28.8491C36.4251 28.8491 36.229 29.0452 36.229 29.287C36.229 29.5289 36.4251 29.7249 36.6669 29.7249Z" fill="#3A556A"/>
<path d="M21.8345 29.6973C22.0764 29.6973 22.2724 29.5013 22.2724 29.2594C22.2724 29.0176 22.0764 28.8215 21.8345 28.8215C21.5927 28.8215 21.3966 29.0176 21.3966 29.2594C21.3966 29.5013 21.5927 29.6973 21.8345 29.6973Z" fill="#3A556A"/>
</g>
<defs>
<clipPath id="clip0">
<rect width="40" height="40" fill="white"/>
</clipPath>
</defs>
</svg>
