<svg width="40" height="40" viewBox="0 0 40 40" fill="none" xmlns="http://www.w3.org/2000/svg">
<path d="M20 9.5C11.3954 9.5 3.90415 13.9053 0 20.8823C2.42331 29.5979 10.4567 36 20 36C29.5433 36 37.5767 29.5978 40 20.8823C36.0959 13.9053 28.6046 9.5 20 9.5Z" fill="#509FD7"/>
<path d="M20.0007 9C11.3958 9 3.90333 13.754 0 20.7787C0.245793 21.6688 0.545122 22.5366 0.902184 23.3745C1.24527 22.9951 1.58824 22.615 1.88223 22.1982C2.29372 21.6146 2.60526 20.9646 3.0284 20.3895C4.66504 18.1653 7.81013 17.4222 10.4911 18.0824C10.7575 17.6386 10.4873 16.9733 9.98708 16.8409C10.4639 16.6716 10.9715 16.5893 11.4774 16.5994C11.199 16.3889 10.9206 16.1785 10.6422 15.9681C11.3568 15.6514 12.2297 15.722 12.8842 16.1494C12.0513 16.5582 11.5928 17.6061 11.8579 18.4954C12.2747 18.5017 12.6916 18.5079 13.1084 18.5142C13.2768 17.088 13.4757 15.5843 14.3539 14.4481C14.5868 14.1467 14.8791 13.8367 14.8682 13.4559C14.8572 13.0751 14.2746 12.7839 14.0994 13.1221C14.0572 12.7289 14.2099 12.3194 14.4993 12.0499C13.1874 12.1416 11.9007 12.5747 10.8002 13.2951C11.247 12.8568 11.4936 12.2564 11.8753 11.7603C12.2569 11.2642 12.8895 10.854 13.484 11.0496C13.7036 11.1219 13.8897 11.2688 14.0942 11.3766C15.1969 11.9577 16.7624 11.05 16.8063 9.80407C17.263 9.9759 17.7198 10.1477 18.1765 10.3195C18.2515 9.93358 18.6818 9.65675 19.064 9.74856C19.6792 10.5577 18.9009 11.6951 18.0713 12.2822C17.2417 12.8692 16.2009 13.4971 16.1759 14.5133C16.9371 14.9431 17.9007 14.5651 18.6182 14.0657C19.3358 13.5663 20.0163 12.9263 20.8802 12.7927C21.1927 12.7444 21.5202 12.7652 21.8152 12.6513C22.2032 12.5016 22.467 12.1481 22.738 11.8326C23.009 11.5172 23.3504 11.2051 23.7661 11.1939C24.1818 11.1828 24.5938 11.6601 24.3718 12.0119C24.9096 11.7606 25.1904 11.0651 24.9779 10.5108C25.2135 10.5164 25.4466 10.4572 25.6587 10.3544C26.3056 10.9899 27.0798 11.4958 27.9247 11.8254C28.2904 11.9681 28.7561 12.2284 28.6517 12.6069C28.6112 12.7536 28.4892 12.8601 28.3914 12.9766C28.0362 13.3998 27.9911 14.0555 28.2853 14.5232C27.5887 13.5964 26.2694 13.1945 25.1747 13.5756C25.4904 14.1133 25.0833 14.7663 24.7603 15.2997C24.4373 15.8331 24.2621 16.6676 24.8106 16.964C25.0574 17.0974 25.4238 17.0983 25.5209 17.3615C25.6181 17.625 25.331 17.9314 25.6765 18.186C25.9337 18.3756 26.3198 18.2933 26.482 18.0178C26.8114 17.4584 26.4569 16.8857 26.1838 16.3693C25.9471 15.922 25.7783 15.3257 26.1153 14.9482C26.3881 14.7895 26.7551 15.0072 26.8692 15.3015C26.9833 15.5957 26.9202 15.9254 26.8557 16.2343L26.8732 16.2257C27.5544 15.8934 28.2705 16.5609 28.0821 17.2953C28.0562 17.3962 28.0348 17.4982 28.0179 17.601C27.975 17.8634 27.9559 18.1451 27.7978 18.3589C27.6638 18.5401 27.4509 18.6424 27.2467 18.7378L23.7085 20.3901C23.2755 20.5924 23.1292 21.1362 23.4024 21.5284L23.426 21.5622C23.7245 21.9906 23.5114 22.5716 23.0151 22.7336C22.6742 22.845 22.3517 22.9962 22.0686 23.2173C21.4378 23.7099 21.0933 24.6686 21.5386 25.3337C23.2923 25.9196 24.571 22.626 26.334 23.1832C26.6438 24.0034 27.3944 24.6415 28.2537 24.8151C28.4994 24.6382 28.3749 24.2418 28.1721 24.017C27.9459 23.7664 27.629 23.5321 27.6894 23.1699C27.7663 22.709 28.2253 22.5511 28.6309 22.7828C29.3154 23.1739 29.3033 23.9516 29.5398 24.6004C29.7321 25.1277 30.308 25.6373 30.8036 25.3742C30.6022 25.1241 30.3929 24.8561 30.3532 24.5374C30.3137 24.2187 30.5231 23.8467 30.8441 23.8368C31.4166 23.8191 31.4461 24.7229 31.8774 25.0999C32.2814 25.4528 32.9015 25.2441 33.436 25.2872C34.2453 25.3526 34.9252 26.1409 34.8714 26.9512C34.8537 27.2167 34.742 27.5058 34.4973 27.6104C34.3807 27.6602 34.2499 27.6611 34.123 27.6611C33.3253 27.6616 32.5276 27.6621 31.7299 27.6625C30.6213 27.6632 29.4881 27.6599 28.4408 27.2959C26.8986 26.7599 25.5142 25.4511 23.8969 25.6748C23.2163 25.7691 22.6071 26.1323 22.019 26.4878C20.9001 27.1642 19.7506 27.8681 18.9802 28.9248C18.406 29.7123 18.0757 30.6533 17.5279 31.4594C17.1461 32.0212 16.6503 32.5356 16.4845 33.1944C16.3483 33.735 16.454 34.305 16.5858 34.8465C16.6606 35.1537 16.7469 35.4579 16.8384 35.7605C17.8694 35.9182 18.9255 36 20.0006 36C29.5429 36 37.5754 29.5561 40 20.7832C36.0968 13.7572 28.6065 9 20.0007 9Z" fill="#DAD7DC"/>
<path d="M10 4C7.79084 4 6 5.76043 6 7.93207C6 10.1037 10 15 10 15C10 15 14 10.1037 14 7.93207C14 5.76043 12.2092 4 10 4ZM10 10.1109C8.77593 10.1109 7.78357 9.1354 7.78357 7.93207C7.78357 6.72879 8.77593 5.75329 10 5.75329C11.2241 5.75329 12.2164 6.72879 12.2164 7.93207C12.2164 9.1354 11.2241 10.1109 10 10.1109Z" fill="#F1622A"/>
<path d="M15.5 18C13.2908 18 11.5 19.7604 11.5 21.9321C11.5 24.1037 15.5 29 15.5 29C15.5 29 19.5 24.1037 19.5 21.9321C19.5 19.7604 17.7092 18 15.5 18ZM15.5 24.1109C14.2759 24.1109 13.2836 23.1354 13.2836 21.9321C13.2836 20.7288 14.2759 19.7533 15.5 19.7533C16.7241 19.7533 17.7164 20.7288 17.7164 21.9321C17.7164 23.1354 16.7241 24.1109 15.5 24.1109Z" fill="#FEED32"/>
<path d="M34.25 8C32.4551 8 31 9.52037 31 11.3959C31 13.2714 34.25 17.5 34.25 17.5C34.25 17.5 37.5 13.2714 37.5 11.3959C37.5 9.52037 36.0449 8 34.25 8ZM34.25 13.2776C33.2554 13.2776 32.4492 12.4351 32.4492 11.3959C32.4492 10.3567 33.2554 9.5142 34.25 9.5142C35.2446 9.5142 36.0508 10.3567 36.0508 11.3959C36.0508 12.4351 35.2446 13.2776 34.25 13.2776Z" fill="#D5693C"/>
</svg>
