<svg width="40" height="40" viewBox="0 0 40 40" fill="none" xmlns="http://www.w3.org/2000/svg">
<g clip-path="url(#clip0)">
<path d="M29.5625 35.3902C29.9651 34.966 30.029 34.3233 29.7236 33.8247L24.8271 25.8318C24.4134 25.1565 23.4992 25.0058 22.8919 25.5139C22.5923 25.7646 22.2466 26.0365 21.8795 26.3017L28.2435 36.6901C28.7692 36.2042 29.224 35.7468 29.5625 35.3902Z" fill="#64798A"/>
<path d="M13.6832 10.4817C14.4118 10.1713 14.6927 9.2886 14.2791 8.61331L9.38247 0.620052C9.0772 0.121713 8.47534 -0.113248 7.9147 0.0526697C7.44331 0.19222 6.82905 0.389584 6.15747 0.637142L12.5215 11.0257C12.9245 10.8192 13.3238 10.6347 13.6832 10.4817Z" fill="#64798A"/>
<path d="M18.8144 27.6881C12.829 27.8145 7.06248 18.4015 9.89403 13.1266C10.1809 12.5922 10.7557 12.0973 11.4185 11.6628L4.9574 1.11597C2.88612 2.00767 0.686896 3.33403 0.272541 5.05884C-2.11515 14.9979 11.6923 37.5367 21.6314 39.9243C23.3562 40.3386 25.5367 38.9817 27.2722 37.5416L20.811 26.9948C20.1228 27.3878 19.421 27.6753 18.8144 27.6881Z" fill="#64798A"/>
<path d="M20.811 26.9948L27.2722 37.5417C27.6164 37.2559 27.9417 36.9693 28.2435 36.6901L21.8795 26.3018C21.5378 26.5486 21.1772 26.7858 20.811 26.9948Z" fill="#3A556A"/>
<path d="M12.5214 11.0258L6.1573 0.637207C5.77146 0.779492 5.36834 0.938965 4.9574 1.11592L11.4185 11.6628C11.7711 11.4316 12.1462 11.2182 12.5214 11.0258Z" fill="#3A556A"/>
<path d="M28.8222 0C22.6488 0 17.6444 4.0916 17.6444 9.13906C17.6444 10.6882 18.1243 12.1428 18.9584 13.4201C19.1576 13.7253 19.2267 14.0933 19.1147 14.4401C18.7574 15.5488 18.1895 17.1419 17.4939 18.5065C17.0417 19.3937 17.8659 20.3976 18.8163 20.1005C20.3219 19.63 22.1024 18.8931 23.4043 17.7965C23.7205 17.5301 24.1571 17.4421 24.5486 17.5756C25.8653 18.0244 27.3062 18.278 28.8223 18.278C34.9953 18.278 40 14.1862 40 9.13906C39.9999 4.0917 34.9952 0 28.8222 0Z" fill="#F18518"/>
<path d="M26.5265 7.74768C26.7325 7.46653 26.8355 7.18088 26.8355 6.89329C26.8355 6.60491 26.7254 6.3592 26.5059 6.15676C26.2865 5.95432 26.0081 5.85276 25.6721 5.85276C25.0819 5.85276 24.5912 6.1553 24.1999 6.75901L23.2219 6.19299C23.5373 5.71926 23.8859 5.36272 24.2666 5.1219C24.648 4.88186 25.138 4.76184 25.7389 4.76184C26.3398 4.76184 26.8661 4.95217 27.3192 5.33293C27.7723 5.71438 27.9989 6.2342 27.9989 6.89329C27.9989 7.26331 27.9031 7.61702 27.7105 7.95364C27.518 8.28958 27.1651 8.722 26.6501 9.25051L24.962 10.97H28.2254V12.1334H23.3042V11.1035L25.4868 8.91106C25.974 8.41682 26.3206 8.02893 26.5265 7.74768Z" fill="white"/>
<path d="M32.2403 9.22007V7.90181H33.3937V9.21997H34.258V10.3215H33.3937V12.1334H32.2403V10.3215H29.1515V9.25064L31.7979 4.93677H33.1259L30.5208 9.22007H32.2403Z" fill="white"/>
</g>
<defs>
<clipPath id="clip0">
<rect width="40" height="40" fill="white"/>
</clipPath>
</defs>
</svg>
