<svg width="80" height="80" viewBox="0 0 80 80" fill="none" xmlns="http://www.w3.org/2000/svg">
<g clip-path="url(#clip0)">
<path d="M58.2328 -0.000366211C46.2108 -0.000366211 36.465 9.71797 36.465 21.7063C36.465 26.3119 37.9075 30.5793 40.3607 34.0924L35.8339 44.9996L47.8519 40.7903C50.9375 42.4628 54.4739 43.4131 58.2328 43.4131C70.2548 43.4131 80.0005 33.6947 80.0005 21.7063C80.0005 9.71797 70.2548 -0.000366211 58.2328 -0.000366211Z" fill="#DC594E"/>
<path d="M53.3339 29.9222C53.7219 32.3238 55.8129 34.1663 58.3338 34.1663C60.8548 34.1663 62.9458 32.3238 63.3339 29.9221C62.4439 29.3057 62.4839 28.4581 62.4839 28.4581V25.8329H54.1838V28.4581C54.1838 28.4581 54.2239 29.3058 53.3339 29.9222Z" fill="#D6B24E"/>
<path d="M64.5843 14.9083C64.5829 14.9083 64.5816 15.3651 64.5803 15.3651C64.4959 11.7329 61.7189 8.33295 58.3339 8.33295C54.9488 8.33295 52.1718 11.7329 52.0874 15.3651C52.0861 15.3651 52.0848 14.9083 52.0835 14.9083C51.3933 14.9083 50.8339 16.556 50.8339 18.0258C50.8339 19.4955 51.3933 20.6869 52.0835 20.6869V20.7819C52.0835 22.5974 53.5804 24.8946 55.1091 26.7671C56.8136 28.8549 59.854 28.8549 61.5585 26.7671C63.0873 24.8946 64.5843 22.5974 64.5843 20.7819V20.6869C65.2744 20.6869 65.8339 19.4955 65.8339 18.0258C65.8339 16.556 65.2744 14.9083 64.5843 14.9083Z" fill="#FFD25A"/>
<path d="M63.3339 31.7712L62.1447 35.2308L62.1353 35.2586L60.244 40.7217C59.9818 40.7588 59.7197 40.7773 59.4481 40.7959C59.4107 40.8052 59.3732 40.8052 59.3357 40.7959C59.1204 40.8237 58.9051 40.833 58.6897 40.833L58.4275 40.2486L58.362 33.617L58.3339 31.3723L59.2234 30.4727V30.4634L59.6822 29.9996L61.5174 30.8901H61.5268L62.3507 31.2889L62.9687 31.5949L63.3339 31.7712Z" fill="#E6E7E8"/>
<path d="M74.1672 32.3623C71.6471 36.1901 67.7892 39.0656 63.2622 40.3293C62.4742 40.5491 61.6586 40.7231 60.8339 40.833L61.1454 39.7799L62.1168 35.5125L62.1259 35.485L62.9324 31.8952L63.1523 30.9795L64.7743 29.1663C64.7743 29.1663 71.1798 30.5766 74.1672 32.3623Z" fill="#344E5C"/>
<path d="M62.5005 27.4996L58.3339 29.6524L61.584 31.6663L62.5005 27.4996Z" fill="#DAD7DC"/>
<path d="M58.3339 31.3723L58.3057 33.6077L58.2402 40.2486L57.9781 40.833C57.7627 40.833 57.5473 40.8237 57.332 40.7959C57.2946 40.8052 57.2571 40.8052 57.2196 40.7866C56.9481 40.7773 56.6766 40.7588 56.4144 40.7217L54.5324 35.2401L54.523 35.2122L53.3339 31.7712L53.699 31.5949L54.3264 31.2889L55.141 30.8901H55.1503L56.9855 29.9996L57.4443 30.4727L58.3339 31.3723Z" fill="#E6E7E8"/>
<path d="M55.8338 40.833C54.9994 40.7231 54.1924 40.5491 53.4038 40.3293C48.8737 39.0656 45.0223 36.1993 42.5005 32.3715C45.49 30.5675 51.8907 29.1663 51.8907 29.1663L53.5138 30.9795L53.7339 31.8952L54.5409 35.4667L54.55 35.4942L55.5221 39.7799L55.8338 40.833Z" fill="#344E5C"/>
<path d="M54.1671 27.4996L58.3338 29.6524L55.0836 31.6663L54.1671 27.4996Z" fill="#DAD7DC"/>
<path d="M59.8503 40.4267L59.8803 40.7788C59.8403 40.7878 59.8003 40.7878 59.7602 40.7788C59.53 40.8059 59.2998 40.8149 59.0695 40.8149C58.8293 40.833 58.589 40.833 58.3388 40.833C58.0885 40.833 57.8383 40.833 57.5981 40.8149C57.3678 40.8149 57.1376 40.8059 56.9074 40.7788C56.8673 40.7878 56.8273 40.7878 56.7872 40.7698L56.8172 40.4267L57.4079 33.7281L57.518 32.41L56.6671 30.9295L57.0275 30.7309L58.3388 29.9996L59.6401 30.7218V30.7309L60.0005 30.9295L59.1496 32.41L59.2697 33.7281L59.8503 40.4267Z" fill="#F37735"/>
<path d="M56.6672 40.8268C56.6333 40.8362 56.5993 40.8362 56.5655 40.8175C56.3195 40.8082 56.0737 40.7896 55.8363 40.7524C55.6582 40.7337 55.4886 40.7059 55.3191 40.6779C54.5475 40.5662 53.8014 40.3894 53.0722 40.1661L51.0797 35.9315L52.8094 34.8147L50.8339 33.6235L51.6732 28.8212L54.0134 27.4996H54.0218V27.5089L54.0303 27.5462L54.6916 30.8873L54.8697 31.7621L55.0223 32.5625L56.5909 40.4639L56.6672 40.8268Z" fill="#293B44"/>
<path d="M63.576 34.8142L65.5528 35.931L63.2756 40.1652C62.4423 40.3886 61.5799 40.5654 60.7078 40.6771C60.5043 40.7143 60.3105 40.7329 60.1071 40.7515C59.8357 40.7887 59.5644 40.8074 59.2834 40.826C59.2447 40.8353 59.2059 40.8353 59.1671 40.826L59.2544 40.463L61.0373 32.5715L61.2214 31.7618L61.4249 30.8871L62.1904 27.5089V27.4996H62.2001L64.8745 28.8211L65.8338 33.6231L63.576 34.8142Z" fill="#293B44"/>
<path d="M50.3843 16.7371C50.6395 17.6773 51.1745 18.3981 51.2443 19.9996H51.6789C51.561 19.3137 51.3897 17.5932 51.9681 14.9897C51.9681 14.9897 61.1895 15.715 63.0549 11.4421C63.0549 11.4421 64.4749 11.2832 64.6388 13.666C64.8026 16.0487 64.748 16.7371 65.2395 17.1077L64.995 19.9996H65.3039C65.4632 19.1936 65.897 17.191 66.3318 16.8959C66.3318 16.8959 67.7518 10.2242 64.748 8.9534C64.748 8.9534 63.7103 4.55859 56.7196 6.2001C49.7289 7.8415 50.0019 12.5011 50.0019 12.5011C50.0019 12.5011 50.1112 15.7311 50.3843 16.7371Z" fill="#344E5C"/>
<path d="M64.3159 64.8671C64.2328 63.5752 61.1501 64.3022 59.9438 63.8329L54.2386 60.8288C52.8417 60.2857 51.7179 59.6457 50.7974 60.8288C50.1252 61.6931 46.8605 58.988 46.193 59.8462C46.0772 59.9954 45.9345 60.125 45.7942 60.2563H45.7942C44.3731 61.5858 41.8074 61.9914 40.0461 60.96C31.3835 55.8395 24.1557 48.6092 19.0361 39.9452C18.0052 38.1844 18.4113 35.6185 19.7398 34.1965C19.871 34.0562 20.0007 33.9131 20.1496 33.7973C20.9432 33.1797 17.4751 25.9314 18.2735 25.3097C19.4564 24.3892 19.7671 26.0435 19.2239 24.6463L15.8447 16.6189C15.3519 15.351 16.2527 14.0362 14.8943 13.9783C13.3159 13.911 11.548 10.5888 10.1587 10.8473V10.8469C7.55295 11.3316 5.30843 12.3895 3.58669 14.1116C-4.89222 22.5922 2.17773 43.4141 19.378 60.6179C36.5783 77.8217 57.3956 84.8933 65.8745 76.4128C67.597 74.6899 68.6729 72.455 69.1558 69.8466C69.4363 68.3309 64.4278 66.6087 64.3159 64.8671Z" fill="#ECECEC"/>
<path d="M17.6294 12.8964C17.1378 11.6322 15.9359 10.7947 14.5807 10.7371C13.0062 10.67 11.5202 10.7689 10.1342 11.0264L19.6922 34.3145C19.823 34.1745 19.9525 34.032 20.101 33.9164C20.8928 33.3005 21.687 32.6827 22.4835 32.0629C23.6635 31.1445 24.1066 29.5558 23.5648 28.1623L17.6294 12.8964Z" fill="#467080"/>
<path d="M69.238 64.9857C69.1552 63.6973 68.2964 62.5873 67.093 62.1194L51.9828 56.2441C50.5893 55.7023 49.0048 56.14 48.0866 57.32C47.4159 58.1819 46.7476 59.041 46.0817 59.8971C45.9661 60.0457 45.8238 60.1752 45.6838 60.3061L68.9892 69.8712C69.2691 68.3597 69.3497 66.723 69.238 64.9857Z" fill="#467080"/>
</g>
<defs>
<clipPath id="clip0">
<rect width="80" height="80" fill="white" transform="translate(0.000488281 -0.000366211)"/>
</clipPath>
</defs>
</svg>
