<svg width="28" height="35" viewBox="0 0 28 35" fill="none" xmlns="http://www.w3.org/2000/svg">
<path d="M10.3883 9.76227L11.3215 9.00598C11.8089 8.61378 12.1612 8.07881 12.3291 7.47617C12.4969 6.87352 12.4717 6.23345 12.2572 5.6458C11.7775 4.34282 10.9406 2.51514 9.67724 1.20853C8.45114 -0.0595042 6.86643 -0.340838 5.14334 0.417325C2.50017 1.57967 -0.212687 5.16745 0.0131979 8.93727C0.216894 12.3263 2.09924 17.3997 5.04864 22.5087C7.99896 27.6194 11.4518 31.7865 14.2846 33.6557C15.7069 34.5581 17.3621 35.0249 19.0463 34.9986C20.889 35.0312 22.6975 34.4987 24.2286 33.4727C25.7526 32.3546 26.2993 30.8603 25.8097 29.1515C25.3101 27.4041 24.1459 25.7653 23.2571 24.6981C22.8551 24.2188 22.3134 23.8773 21.7077 23.7213C21.102 23.5652 20.4627 23.6025 19.8793 23.8279L18.7574 24.2584C17.9997 24.5501 17.1714 24.6054 16.3817 24.4171C15.592 24.2288 14.8779 23.8056 14.3334 23.2033C13.1647 21.886 12.1374 20.4496 11.2686 18.9177C10.3766 17.3997 9.64649 15.7921 9.09029 14.1215C8.84117 13.3488 8.83184 12.5188 9.06354 11.7407C9.29523 10.9626 9.75709 10.2728 10.3883 9.76227ZM7.60696 14.5889C8.19492 16.3685 8.97097 18.0803 9.92194 19.6953C10.8452 21.3265 11.9397 22.8546 13.1868 24.2539C13.9414 25.0873 14.9309 25.6726 16.0247 25.9326C17.1186 26.1926 18.2656 26.115 19.3145 25.7102L20.4355 25.2801C20.7159 25.171 21.0234 25.1521 21.315 25.2262C21.6067 25.3003 21.8679 25.4636 22.0623 25.6933C22.8552 26.6455 23.8896 28.0924 24.3146 29.5793C24.6218 30.6513 24.3021 31.4902 23.3087 32.2191C21.4319 33.596 17.6159 33.9916 15.1413 32.3579C12.5002 30.6153 9.23057 26.6427 6.39529 21.7312C3.56093 16.8213 1.75527 12.0036 1.56563 8.84407C1.38814 5.88444 3.63857 2.77787 5.76961 1.84085C6.14885 1.66261 6.56087 1.56476 6.97976 1.55347C7.27992 1.55847 7.57567 1.62658 7.84779 1.75338C8.1199 1.88018 8.36228 2.06282 8.55917 2.28944C9.63417 3.40126 10.3699 5.02031 10.7978 6.18284C10.9001 6.46582 10.9113 6.77373 10.8296 7.06335C10.748 7.35298 10.5778 7.60978 10.3428 7.79772L9.40921 8.5542C8.5346 9.26047 7.89431 10.215 7.57262 11.2922C7.25093 12.3693 7.2629 13.5186 7.60696 14.5889Z" fill="white"/>
<path d="M26.5816 21.2455L26.779 21.2588C26.8653 21.2646 26.9518 21.2529 27.0335 21.2246C27.1152 21.1962 27.1904 21.1518 27.2546 21.0938C27.3188 21.0359 27.3707 20.9657 27.4073 20.8873C27.4438 20.809 27.4643 20.7241 27.4675 20.6376C27.4755 20.411 27.4796 20.1879 27.4796 19.9701C27.4644 16.725 26.5725 13.5444 24.8983 10.7645C23.2241 7.98465 20.8298 5.70886 17.9686 4.17782C17.8918 4.13602 17.8074 4.11017 17.7204 4.10183C17.6334 4.0935 17.5456 4.10284 17.4624 4.12931C17.3791 4.15578 17.302 4.19883 17.2358 4.25586C17.1695 4.31289 17.1155 4.38272 17.077 4.46117L16.9907 4.63927C16.9179 4.78739 16.9051 4.95793 16.9551 5.11524C17.0051 5.27255 17.1139 5.40445 17.2589 5.48338C19.8859 6.88599 22.0846 8.97294 23.6223 11.5232C25.16 14.0735 25.9794 16.9922 25.9936 19.9701C25.9936 20.1686 25.99 20.3721 25.9827 20.5792C25.9765 20.7462 26.0355 20.9091 26.1473 21.0335C26.2591 21.1578 26.4148 21.2338 26.5816 21.2455Z" fill="white"/>
<path d="M15.2959 8.16277L15.2098 8.34098C15.1379 8.48837 15.1253 8.65774 15.1747 8.81412C15.2241 8.97049 15.3317 9.10193 15.4752 9.1813C17.4108 10.2429 19.027 11.8033 20.1559 13.7005C21.2849 15.5977 21.8854 17.7624 21.8952 19.9701C21.8952 20.0745 21.8939 20.1787 21.8913 20.2827C21.8874 20.4468 21.9467 20.6062 22.0569 20.7279C22.1672 20.8495 22.32 20.9242 22.4837 20.9364L22.6811 20.9516C22.7686 20.9582 22.8566 20.947 22.9396 20.9186C23.0226 20.8901 23.099 20.8451 23.1641 20.7862C23.2291 20.7273 23.2816 20.6558 23.3181 20.576C23.3547 20.4963 23.3746 20.4099 23.3767 20.3221C23.3797 20.2051 23.3812 20.0877 23.3812 19.9701C23.3704 17.4968 22.6981 15.0714 21.434 12.9455C20.17 10.8196 18.3602 9.07059 16.1923 7.87988C16.1154 7.8373 16.0306 7.81083 15.9431 7.80206C15.8556 7.79329 15.7672 7.80242 15.6834 7.82888C15.5995 7.85534 15.5219 7.89859 15.4553 7.95599C15.3887 8.01339 15.3344 8.08375 15.2959 8.16277Z" fill="white"/>
<path d="M13.5132 11.859L13.4274 12.0374C13.357 12.1824 13.3441 12.3485 13.3911 12.5027C13.4381 12.6568 13.5417 12.7874 13.681 12.8683C14.9282 13.5887 15.9646 14.6236 16.6867 15.8698C17.4088 17.116 17.7914 18.5297 17.7963 19.97C17.7937 20.1329 17.8524 20.2908 17.9607 20.4123C18.0691 20.5339 18.2193 20.6103 18.3814 20.6262L18.5789 20.6443C18.6674 20.6528 18.7566 20.6429 18.841 20.6151C18.9254 20.5873 19.0031 20.5423 19.0692 20.483C19.1354 20.4236 19.1884 20.3512 19.2251 20.2702C19.2617 20.1893 19.2812 20.1016 19.2822 20.0128L19.2823 19.97C19.2765 18.2675 18.824 16.5963 17.97 15.1235C17.116 13.6506 15.8903 12.4277 14.4156 11.577C14.3385 11.5332 14.2532 11.5056 14.1651 11.4961C14.0769 11.4867 13.9877 11.4954 13.9031 11.5219C13.8184 11.5483 13.7401 11.5919 13.6731 11.6499C13.606 11.7079 13.5516 11.779 13.5132 11.859Z" fill="white"/>
</svg>
