<svg width="41" height="43" viewBox="0 0 41 43" fill="none" xmlns="http://www.w3.org/2000/svg">
<g filter="url(#filter0_d)">
<path fill-rule="evenodd" clip-rule="evenodd" d="M13.7561 7.80473C13.7561 11.4633 16.8049 14.512 20.4634 14.512C24.122 14.512 27.0488 11.4633 27.0488 7.80473V3.17058C27.0488 2.07302 25.3415 2.07302 25.3415 3.17058V7.80473C25.3415 10.6096 23.1463 12.8047 20.4634 12.8047C17.6585 12.8047 15.4634 10.6096 15.4634 7.80473V3.17058C15.4634 2.07302 13.7561 2.07302 13.7561 3.17058V7.80473Z" fill="white"/>
<path d="M8.63415 0H32.1707C34.7317 0 36.8049 2.07317 36.8049 4.63415V30.3659C36.8049 32.9268 34.7317 35 32.1707 35H8.63415C6.07317 35 4 32.9268 4 30.3659V4.63415C4 2.07317 6.07317 0 8.63415 0ZM32.1707 1.82927H8.63415C7.04878 1.82927 5.82927 3.04878 5.82927 4.63415V30.3659C5.82927 31.9512 7.04878 33.2927 8.63415 33.2927H32.1707C33.7561 33.2927 35.0976 31.9512 35.0976 30.3659V4.63415C35.0976 3.04878 33.7561 1.82927 32.1707 1.82927Z" fill="white"/>
</g>
<defs>
<filter id="filter0_d" x="0" y="0" width="40.8049" height="43" filterUnits="userSpaceOnUse" color-interpolation-filters="sRGB">
<feFlood flood-opacity="0" result="BackgroundImageFix"/>
<feColorMatrix in="SourceAlpha" type="matrix" values="0 0 0 0 0 0 0 0 0 0 0 0 0 0 0 0 0 0 127 0"/>
<feOffset dy="4"/>
<feGaussianBlur stdDeviation="2"/>
<feColorMatrix type="matrix" values="0 0 0 0 0 0 0 0 0 0 0 0 0 0 0 0 0 0 0.25 0"/>
<feBlend mode="normal" in2="BackgroundImageFix" result="effect1_dropShadow"/>
<feBlend mode="normal" in="SourceGraphic" in2="effect1_dropShadow" result="shape"/>
</filter>
</defs>
</svg>
